<svg width="42" height="32" viewBox="0 0 42 32" fill="none" xmlns="http://www.w3.org/2000/svg">
<path d="M35.6005 2.67417C34.9161 2.36191 34.2211 2.07046 33.5157 1.79983C32.8102 1.5292 32.0954 1.28198 31.3712 1.05819C30.647 0.834142 29.9137 0.633641 29.1713 0.45669C28.4289 0.279739 27.6784 0.127509 26.9198 0C26.8242 0.16433 26.7247 0.343493 26.6279 0.530463C26.5311 0.717433 26.4327 0.912599 26.3367 1.10894C26.2406 1.30527 26.1489 1.50317 26.0634 1.69444C25.978 1.8857 25.8944 2.07384 25.8203 2.24871C25.0136 2.13187 24.2081 2.04418 23.4037 1.98563C22.5994 1.92708 21.7966 1.8978 20.9954 1.8978C20.1941 1.8978 19.3942 1.92708 18.5956 1.98563C17.797 2.04418 16.9998 2.13187 16.204 2.24871C16.1298 2.07384 16.0479 1.88687 15.9573 1.69444C15.8668 1.502 15.7731 1.3041 15.6763 1.10894C15.5795 0.91377 15.4811 0.718604 15.3835 0.530463C15.2859 0.342322 15.1895 0.16433 15.1001 0C14.3361 0.127509 13.5815 0.279739 12.8362 0.45669C12.0909 0.633641 11.3563 0.834142 10.6324 1.05819C9.90793 1.28224 9.19427 1.52946 8.49141 1.79983C7.78855 2.0702 7.09727 2.36165 6.41757 2.67417C5.11159 4.58728 3.97443 6.61032 3.01894 8.72044C2.14953 10.6471 1.4595 12.6498 0.957591 14.7031C0.485199 16.6483 0.186849 18.6318 0.0660696 20.6299C-0.0501774 22.5894 -0.0129823 24.555 0.177315 26.5087C1.08991 27.1723 1.99471 27.7703 2.89247 28.3113C3.79024 28.8523 4.68098 29.3355 5.56626 29.7696C6.45153 30.2036 7.33017 30.5893 8.20452 30.9292C9.07886 31.2692 9.94775 31.5709 10.8135 31.8364C11.0261 31.5501 11.2331 31.2584 11.4345 30.9612C11.6359 30.6641 11.8316 30.3622 12.0216 30.0557C12.2113 29.7491 12.3949 29.4382 12.5723 29.1228C12.7498 28.8074 12.9208 28.4878 13.0852 28.1641C12.773 28.0473 12.4638 27.9238 12.1578 27.7937C11.8518 27.6636 11.5499 27.527 11.2522 27.3838C10.953 27.2407 10.6574 27.0904 10.3654 26.933C10.0734 26.7756 9.7842 26.6129 9.49769 26.4451C9.5716 26.393 9.6455 26.3389 9.7194 26.2827C9.79331 26.2265 9.86669 26.1702 9.93955 26.1137C10.0124 26.0567 10.0848 25.9991 10.1566 25.9408C10.2284 25.8825 10.2992 25.8243 10.3689 25.7663C12.0609 26.543 13.83 27.1393 15.647 27.545C17.4126 27.9381 19.2158 28.1369 21.0246 28.138C22.828 28.1376 24.6259 27.9389 26.3859 27.5454C28.1879 27.1409 29.9414 26.5445 31.6163 25.7663C31.6902 25.8251 31.7633 25.8835 31.8357 25.9416C31.908 25.9996 31.9801 26.0572 32.0519 26.1145C32.1238 26.1715 32.1958 26.2275 32.2682 26.2827C32.3405 26.3379 32.4136 26.392 32.4875 26.4451C32.2013 26.6147 31.9123 26.7778 31.6206 26.9342C31.3289 27.0906 31.0337 27.2405 30.7349 27.3838C30.4365 27.5272 30.1345 27.6638 29.829 27.7937C29.5235 27.9235 29.2142 28.047 28.9012 28.1641C29.0656 28.4876 29.2366 28.8071 29.4141 29.1228C29.5915 29.4384 29.7751 29.7494 29.9648 30.0557C30.1545 30.3622 30.3497 30.6639 30.5503 30.9608C30.751 31.2578 30.958 31.5495 31.1713 31.836C32.0363 31.5705 32.9064 31.2708 33.7819 30.9288C34.6574 30.5869 35.5384 30.2028 36.4244 29.7692C37.3105 29.3355 38.2024 28.8519 39.0994 28.3109C39.9964 27.7699 40.8988 27.1719 41.8068 26.5087C42.0319 24.3281 42.0604 22.1317 41.8918 19.946C41.7293 17.8701 41.3743 15.8137 40.8317 13.8034C40.296 11.8279 39.5856 9.90409 38.7091 8.05453C37.8201 6.18152 36.7832 4.38237 35.6083 2.67417H35.6005ZM14.0345 21.6908C13.5267 21.6905 13.0252 21.5773 12.5665 21.3594C12.1102 21.1416 11.7019 20.8349 11.3654 20.4574C11.0153 20.0656 10.7404 19.6127 10.5543 19.1213C10.3564 18.5997 10.2555 18.0463 10.2565 17.4885C10.2552 16.9313 10.3541 16.3783 10.5485 15.8561C10.7309 15.3652 11.0026 14.9124 11.3498 14.5204C11.6846 14.1418 12.0925 13.8348 12.5489 13.6179C13.013 13.4 13.5195 13.287 14.0322 13.287C14.5449 13.287 15.0514 13.4 15.5155 13.6179C15.9749 13.8349 16.3864 14.1416 16.7255 14.52C17.0765 14.9107 17.3507 15.3639 17.5339 15.8561C17.7283 16.378 17.8224 16.932 17.811 17.4889C17.8123 18.0465 17.7124 18.5997 17.5163 19.1216C17.3322 19.6128 17.0589 20.0658 16.7103 20.4578C16.3746 20.8359 15.9665 21.1428 15.51 21.3602C15.0487 21.5782 14.5448 21.6911 14.0345 21.6908ZM27.9808 21.6908C27.473 21.6905 26.9717 21.5773 26.5131 21.3594C26.0566 21.1415 25.648 20.8348 25.3113 20.4574C24.9608 20.0656 24.6854 19.6127 24.499 19.1213C24.3003 18.5993 24.199 18.0454 24.2 17.4869C24.1987 16.9297 24.2977 16.3767 24.4923 15.8546C24.6754 15.3641 24.9476 14.9118 25.2953 14.5204C25.6303 14.1418 26.0385 13.8348 26.4951 13.6179C26.9592 13.4 27.4657 13.287 27.9784 13.287C28.4911 13.287 28.9976 13.4 29.4617 13.6179C29.9211 13.8349 30.3326 14.1416 30.6717 14.52C31.0227 14.9107 31.2969 15.3639 31.4801 15.8561C31.6746 16.378 31.7686 16.932 31.7572 17.4889C31.7586 18.0462 31.6597 18.5993 31.4653 19.1216C31.2829 19.6127 31.0112 20.0657 30.6639 20.4578C30.3291 20.8364 29.9213 21.1433 29.4648 21.3602C29.0006 21.5786 28.4938 21.6916 27.9808 21.6908Z" fill="white"/>
</svg>
