<svg width="23" height="23" viewBox="0 0 23 23" fill="none" xmlns="http://www.w3.org/2000/svg">
<path d="M14.7571 0.615932C13.697 0.245842 12.5841 0.037009 11.4606 0.00264299C11.339 -1.0943e-08 11.2174 0 11.0985 0C10.3768 0 9.6578 0.079304 8.95459 0.235272C8.94164 0.242412 8.92921 0.249542 8.91626 0.256682C8.92816 0.249542 8.93979 0.242412 8.95195 0.235272C5.95158 0.912002 3.72575 3.01623 2.6287 6.12498C1.58981 9.36328 2.4278 12.9135 4.8043 15.3482C7.80203 18.4173 12.8405 19.287 16.0656 16.0593L16.0675 16.0545C18.8043 13.3129 18.8027 8.86999 16.063 6.12763C13.356 3.42068 10.2446 3.62952 7.04334 5.28699L6.84508 5.39009L7.01162 10.5026C7.02325 10.468 7.03568 10.4352 7.04863 10.4035C7.037 10.4365 7.02537 10.4693 7.01426 10.5026L7.11472 13.5982L7.21781 13.696C8.0558 14.5075 8.95459 14.7825 9.7899 14.9622L9.6683 7.26433C9.6467 7.2749 9.6255 7.28601 9.6041 7.29711C9.6252 7.28468 9.6467 7.27279 9.6683 7.26169C11.4976 6.6669 13.4089 7.04756 14.6117 8.65481C14.6138 8.65639 14.6156 8.65798 14.6178 8.65957C15.6297 10.0152 15.7738 11.8339 14.9871 13.3312C13.3216 16.5192 8.54221 16.3421 6.22121 13.9683C5.0898 12.8104 4.38134 11.301 4.2148 9.68838C3.89229 6.63253 5.54184 3.70882 8.32544 2.40822L8.73254 2.28927C9.5044 2.08043 10.3001 1.97733 11.0985 1.97733C16.1343 1.97469 20.2159 6.05361 20.2212 11.0868C20.2212 12.5989 19.8458 14.0872 19.1294 15.4169C19.117 15.4415 19.1043 15.4655 19.0919 15.4901C18.6779 16.2438 18.1579 16.9329 17.5486 17.5423C14.6011 20.4871 10.0331 20.9894 6.38247 19.0993C1.87002 16.7651 0.138522 11.5045 1.66911 6.77793C1.76692 6.47657 1.61624 6.15142 1.32281 6.02982L1.23558 5.99281L1.09283 6.29417C0.934216 6.62725 0.788826 6.96826 0.664576 7.3172C-1.42114 13.088 1.56602 19.4535 7.33677 21.5392C7.37114 21.5525 7.4055 21.563 7.44251 21.5762C7.54323 21.5953 7.64368 21.613 7.74413 21.6302C7.64236 21.6133 7.54006 21.5955 7.43722 21.5762C13.2265 23.5959 19.555 20.5426 21.5773 14.756C23.5969 8.96674 20.5437 2.63821 14.7571 0.615932Z" fill="white"/>
</svg>
