<svg width="42" height="42" viewBox="0 0 42 42" fill="none" xmlns="http://www.w3.org/2000/svg">
<path d="M21.0015 0C15.2982 0 14.5825 0.0249382 12.3424 0.126877C10.1068 0.229253 8.58078 0.583194 7.24551 1.10251C5.86431 1.63889 4.69267 2.3564 3.52541 3.5241C2.35727 4.69136 1.63977 5.863 1.10164 7.24376C0.581006 8.57946 0.226627 10.1059 0.126001 12.3407C0.0262503 14.5807 0 15.2969 0 21.0002C0 26.7035 0.0253757 27.4171 0.126877 29.6571C0.22969 31.8928 0.583631 33.4188 1.10251 34.754C1.63933 36.1353 2.35684 37.3069 3.52454 38.4742C4.69136 39.6423 5.863 40.3615 7.24333 40.8979C8.57946 41.4172 10.1059 41.7712 12.3411 41.8736C14.5812 41.9755 15.2965 42.0004 20.9993 42.0004C26.7031 42.0004 27.4167 41.9755 29.6567 41.8736C31.8923 41.7712 33.4201 41.4172 34.7562 40.8979C36.137 40.3615 37.3069 39.6423 38.4737 38.4742C39.6419 37.3069 40.3594 36.1353 40.8975 34.7545C41.4137 33.4188 41.7681 31.8923 41.8731 29.6576C41.9737 27.4175 42 26.7035 42 21.0002C42 15.2969 41.9737 14.5812 41.8731 12.3411C41.7681 10.1055 41.4137 8.57946 40.8975 7.2442C40.3594 5.863 39.6419 4.69136 38.4737 3.5241C37.3056 2.35596 36.1374 1.63845 34.7549 1.10251C33.4162 0.583194 31.8893 0.229253 29.6536 0.126877C27.4136 0.0249382 26.7005 0 20.9954 0H21.0015ZM19.1176 3.78441C19.6768 3.78354 20.3006 3.78441 21.0015 3.78441C26.6086 3.78441 27.2732 3.80454 29.4874 3.90517C31.5349 3.99879 32.6462 4.34092 33.3864 4.62836C34.3664 5.00899 35.0651 5.46399 35.7997 6.199C36.5347 6.93401 36.9897 7.63402 37.3712 8.61403C37.6586 9.35341 38.0012 10.4647 38.0944 12.5122C38.195 14.726 38.2169 15.391 38.2169 20.9954C38.2169 26.5998 38.195 27.2648 38.0944 29.4786C38.0008 31.5261 37.6586 32.6374 37.3712 33.3768C36.9906 34.3568 36.5347 35.0546 35.7997 35.7892C35.0647 36.5242 34.3669 36.9792 33.3864 37.3598C32.647 37.6486 31.5349 37.9898 29.4874 38.0835C27.2736 38.1841 26.6086 38.206 21.0015 38.206C15.394 38.206 14.7295 38.1841 12.5157 38.0835C10.4682 37.989 9.35691 37.6468 8.61621 37.3594C7.6362 36.9788 6.9362 36.5238 6.20119 35.7887C5.46618 35.0537 5.01118 34.3555 4.62967 33.375C4.34223 32.6357 3.99967 31.5244 3.90648 29.4769C3.80585 27.2631 3.78573 26.5981 3.78573 20.9902C3.78573 15.3822 3.80585 14.7207 3.90648 12.5069C4.0001 10.4594 4.34223 9.34816 4.62967 8.6079C5.0103 7.62789 5.46618 6.92788 6.20119 6.19288C6.9362 5.45787 7.6362 5.00286 8.61621 4.62136C9.35647 4.33261 10.4682 3.99135 12.5157 3.89729C14.453 3.80979 15.2037 3.78354 19.1176 3.77916V3.78441ZM32.2113 7.27133C31.7128 7.27133 31.2256 7.41914 30.8111 7.69609C30.3967 7.97303 30.0737 8.36666 29.883 8.82718C29.6923 9.28771 29.6424 9.79445 29.7397 10.2833C29.837 10.7722 30.0771 11.2212 30.4297 11.5736C30.7822 11.926 31.2313 12.1659 31.7202 12.2631C32.2091 12.3602 32.7158 12.3102 33.1763 12.1193C33.6367 11.9284 34.0302 11.6053 34.307 11.1908C34.5838 10.7762 34.7315 10.2889 34.7313 9.79048C34.7313 8.39921 33.6025 7.27045 32.2113 7.27045V7.27133ZM21.0015 10.2157C15.0458 10.2157 10.217 15.0445 10.217 21.0002C10.217 26.956 15.0458 31.7825 21.0015 31.7825C26.9573 31.7825 31.7847 26.956 31.7847 21.0002C31.7847 15.0445 26.9573 10.2157 21.0015 10.2157ZM21.0015 14.0001C24.8673 14.0001 28.0016 17.134 28.0016 21.0002C28.0016 24.866 24.8673 28.0003 21.0015 28.0003C17.1353 28.0003 14.0015 24.866 14.0015 21.0002C14.0015 17.134 17.1353 14.0001 21.0015 14.0001Z" fill="white"/>
</svg>
