<svg width="180" height="86" viewBox="0 0 180 86" fill="none" xmlns="http://www.w3.org/2000/svg">
<path d="M10.1303 46H6.76761V49.3627H10.1303V46ZM10.1303 15.9589V12.5962H6.76761V15.9589H10.1303ZM13.8855 15.9589H17.2482V12.5962H13.8855V15.9589ZM13.8855 46V49.3627H17.2482V46H13.8855ZM10.1303 46H13.4931V15.9589H10.1303H6.76761V46H10.1303ZM10.1303 15.9589V19.3216H13.8855V15.9589V12.5962H10.1303V15.9589ZM13.8855 15.9589H10.5227V46H13.8855H17.2482V15.9589H13.8855ZM13.8855 46V42.6373H10.1303V46V49.3627H13.8855V46ZM31.4446 46.0196L32.1477 42.7311L32.1368 42.7288L32.126 42.7266L31.4446 46.0196ZM27.005 43.8291L24.6126 46.1922L24.6199 46.1996L24.6272 46.2069L27.005 43.8291ZM24.7754 39.2134L21.483 39.8975L21.4851 39.9077L21.4873 39.918L24.7754 39.2134ZM24.5407 23.8995L27.8686 24.3818L27.8691 24.3784L24.5407 23.8995ZM28.4914 16.8781L26.8909 13.9207L26.8836 13.9247L26.8762 13.9287L28.4914 16.8781ZM32.6572 15.6655L33.0743 19.0023L33.0872 19.0007L33.1 18.999L32.6572 15.6655ZM52.5868 15.6655L52.1441 18.999L52.1569 19.0007L52.1698 19.0023L52.5868 15.6655ZM56.7331 16.8781L55.118 19.8276L55.1253 19.8316L55.1327 19.8356L56.7331 16.8781ZM60.7034 23.8995L57.375 24.3784L57.3755 24.3818L60.7034 23.8995ZM60.4492 39.2134L57.1611 38.5088L57.1589 38.519L57.1568 38.5292L60.4492 39.2134ZM58.2196 43.8291L55.8418 41.4513L55.8345 41.4586L55.8272 41.4659L58.2196 43.8291ZM53.7994 46.0196L53.1181 42.7266L53.1073 42.7288L53.0964 42.7311L53.7994 46.0196ZM54.3862 42.3427L52.8062 39.3742L52.7962 39.3796L52.7861 39.385L54.3862 42.3427ZM56.2246 40.3869L53.208 38.901L53.199 38.9193L53.1902 38.9376L56.2246 40.3869ZM56.2246 21.396L53.1988 22.8631L53.2078 22.8815L53.2169 22.8999L56.2246 21.396ZM54.3862 19.5185L52.8627 22.5163L52.892 22.5312L52.9215 22.5455L54.3862 19.5185ZM51.2765 18.7557L50.9689 22.1043L50.9859 22.1059L51.0029 22.1073L51.2765 18.7557ZM33.9676 18.7557L34.2412 22.1073L34.2582 22.1059L34.2752 22.1043L33.9676 18.7557ZM30.8383 19.5185L32.3224 22.536L32.3323 22.5311L32.3422 22.5262L30.8383 19.5185ZM28.9999 21.396L25.9922 19.8922L25.983 19.9105L25.9741 19.929L28.9999 21.396ZM28.9999 40.3869L25.9655 41.8361L25.9743 41.8544L25.9832 41.8727L28.9999 40.3869ZM30.8383 42.3427L29.2383 45.3003L29.2483 45.3057L29.2584 45.3111L30.8383 42.3427ZM38.6811 46.6259V43.2631C35.8757 43.2631 33.7213 43.0676 32.1477 42.7311L31.4446 46.0196L30.7416 49.308C32.9492 49.7799 35.6191 49.9886 38.6811 49.9886V46.6259ZM31.4446 46.0196L32.126 42.7266C30.7013 42.4318 29.8749 41.9434 29.3828 41.4513L27.005 43.8291L24.6272 46.2069C26.2734 47.8531 28.4068 48.825 30.7633 49.3125L31.4446 46.0196ZM27.005 43.8291L29.3973 41.4659C28.9286 40.9914 28.407 40.112 28.0634 38.5088L24.7754 39.2134L21.4873 39.918C22.0043 42.3306 22.9691 44.5284 24.6126 46.1922L27.005 43.8291ZM24.7754 39.2134L28.0678 38.5292C27.7159 36.8358 27.5122 34.4755 27.5122 31.3706H24.1495H20.7868C20.7868 34.7068 21.0004 37.575 21.483 39.8975L24.7754 39.2134ZM24.1495 31.3706H27.5122V30.5883H24.1495H20.7868V31.3706H24.1495ZM24.1495 30.5883H27.5122C27.5122 28.0232 27.6389 25.9668 27.8686 24.3818L24.5407 23.8995L21.2127 23.4171C20.9209 25.4308 20.7868 27.8336 20.7868 30.5883H24.1495ZM24.5407 23.8995L27.8691 24.3784C28.0929 22.823 28.4501 21.7865 28.8201 21.1296L25.8902 19.4793L22.9602 17.8291C22.0524 19.4409 21.51 21.3511 21.2122 23.4205L24.5407 23.8995ZM25.8902 19.4793L28.8201 21.1296C29.1645 20.5181 29.5865 20.1124 30.1066 19.8276L28.4914 16.8781L26.8762 13.9287C25.2058 14.8434 23.8936 16.1719 22.9602 17.8291L25.8902 19.4793ZM28.4914 16.8781L30.0919 19.8356C30.7323 19.489 31.6893 19.1754 33.0743 19.0023L32.6572 15.6655L32.2401 12.3288C30.2873 12.5729 28.467 13.0678 26.8909 13.9207L28.4914 16.8781ZM32.6572 15.6655L33.1 18.999C34.5777 18.8027 36.4293 18.6958 38.6811 18.6958V15.3331V11.9703C36.239 11.9703 34.0747 12.085 32.2145 12.3321L32.6572 15.6655ZM38.6811 15.3331V18.6958H46.563V15.3331V11.9703H38.6811V15.3331ZM46.563 15.3331V18.6958C48.8148 18.6958 50.6664 18.8027 52.1441 18.999L52.5868 15.6655L53.0296 12.3321C51.1694 12.085 49.0051 11.9703 46.563 11.9703V15.3331ZM52.5868 15.6655L52.1698 19.0023C53.5555 19.1755 54.4986 19.4884 55.118 19.8276L56.7331 16.8781L58.3483 13.9287C56.7772 13.0684 54.9561 12.5728 53.0039 12.3288L52.5868 15.6655ZM56.7331 16.8781L55.1327 19.8356C55.6643 20.1233 56.0853 20.5283 56.424 21.1296L59.3539 19.4793L62.2839 17.8291C61.3448 16.1617 60.0186 14.8326 58.3336 13.9207L56.7331 16.8781ZM59.3539 19.4793L56.424 21.1296C56.794 21.7865 57.1512 22.823 57.375 24.3784L60.7034 23.8995L64.0319 23.4205C63.7341 21.3511 63.1917 19.4409 62.2839 17.8291L59.3539 19.4793ZM60.7034 23.8995L57.3755 24.3818C57.6052 25.9668 57.7319 28.0232 57.7319 30.5883H61.0946H64.4573C64.4573 27.8336 64.3232 25.4308 64.0314 23.4171L60.7034 23.8995ZM61.0946 30.5883H57.7319V31.3706H61.0946H64.4573V30.5883H61.0946ZM61.0946 31.3706H57.7319C57.7319 34.4717 57.522 36.8243 57.1611 38.5088L60.4492 39.2134L63.7372 39.918C64.2368 37.5865 64.4573 34.7106 64.4573 31.3706H61.0946ZM60.4492 39.2134L57.1568 38.5292C56.8266 40.118 56.3095 40.9835 55.8418 41.4513L58.2196 43.8291L60.5974 46.2069C62.2679 44.5363 63.2372 42.3247 63.7416 39.8975L60.4492 39.2134ZM58.2196 43.8291L55.8272 41.4659C55.3535 41.9454 54.5427 42.4318 53.1181 42.7266L53.7994 46.0196L54.4808 49.3125C56.8374 48.825 58.9733 47.851 60.6119 46.1922L58.2196 43.8291ZM53.7994 46.0196L53.0964 42.7311C51.5228 43.0676 49.3684 43.2631 46.563 43.2631V46.6259V49.9886C49.625 49.9886 52.2949 49.7799 54.5025 49.308L53.7994 46.0196ZM46.563 46.6259V43.2631H38.6811V46.6259V49.9886H46.563V46.6259ZM38.6811 43.3792V46.742H46.563V43.3792V40.0165H38.6811V43.3792ZM46.563 43.3792V46.742C48.4956 46.742 50.1886 46.6748 51.6178 46.529L51.2765 43.1836L50.9351 39.8383C49.8087 39.9532 48.3595 40.0165 46.563 40.0165V43.3792ZM51.2765 43.1836L51.6178 46.529C53.1653 46.3711 54.6737 46.0104 55.9862 45.3003L54.3862 42.3427L52.7861 39.385C52.508 39.5355 51.9432 39.7354 50.9351 39.8383L51.2765 43.1836ZM54.3862 42.3427L55.9662 45.3111C57.4469 44.5229 58.5508 43.3191 59.259 41.8361L56.2246 40.3869L53.1902 38.9376C53.064 39.2018 52.9423 39.3018 52.8062 39.3742L54.3862 42.3427ZM56.2246 40.3869L59.2413 41.8727C59.9107 40.5135 60.269 38.9177 60.4483 37.2442L57.1047 36.886L53.7612 36.5277C53.6275 37.7749 53.3991 38.513 53.208 38.901L56.2246 40.3869ZM57.1047 36.886L60.4483 37.2442C60.6222 35.6214 60.7022 33.6532 60.7022 31.3706H57.3394H53.9767C53.9767 33.5211 53.9002 35.2299 53.7612 36.5277L57.1047 36.886ZM57.3394 31.3706H60.7022V30.5883H57.3394H53.9767V31.3706H57.3394ZM57.3394 30.5883H60.7022C60.7022 28.2309 60.6224 26.2121 60.449 24.5644L57.1047 24.9165L53.7605 25.2685C53.9 26.5937 53.9767 28.3561 53.9767 30.5883H57.3394ZM57.1047 24.9165L60.449 24.5644C60.2711 22.8743 59.9143 21.2561 59.2323 19.8922L56.2246 21.396L53.2169 22.8999C53.3955 23.2571 53.6255 23.9858 53.7605 25.2685L57.1047 24.9165ZM56.2246 21.396L59.2505 19.929C58.5261 18.435 57.3862 17.2344 55.8509 16.4915L54.3862 19.5185L52.9215 22.5455C53.0029 22.5848 53.0887 22.636 53.1988 22.8631L56.2246 21.396ZM54.3862 19.5185L55.9097 16.5206C54.5938 15.8519 53.0884 15.5297 51.5501 15.4041L51.2765 18.7557L51.0029 22.1073C52.0201 22.1903 52.5878 22.3766 52.8627 22.5163L54.3862 19.5185ZM51.2765 18.7557L51.584 15.4071C50.1696 15.2772 48.4887 15.217 46.563 15.217V18.5797V21.9424C48.3663 21.9424 49.8277 21.9995 50.9689 22.1043L51.2765 18.7557ZM46.563 18.5797V15.217H38.6811V18.5797V21.9424H46.563V18.5797ZM38.6811 18.5797V15.217C36.7554 15.217 35.0745 15.2772 33.6601 15.4071L33.9676 18.7557L34.2752 22.1043C35.4164 21.9995 36.8778 21.9424 38.6811 21.9424V18.5797ZM33.9676 18.7557L33.694 15.4041C32.1534 15.5299 30.6521 15.852 29.3345 16.5108L30.8383 19.5185L32.3422 22.5262C32.6414 22.3766 33.2263 22.1901 34.2412 22.1073L33.9676 18.7557ZM30.8383 19.5185L29.3543 16.5009C27.8418 17.2448 26.7214 18.4337 25.9922 19.8922L28.9999 21.396L32.0076 22.8999C32.1389 22.6372 32.2442 22.5745 32.3224 22.536L30.8383 19.5185ZM28.9999 21.396L25.9741 19.929C25.319 21.28 24.972 22.8837 24.7951 24.5644L28.1393 24.9165L31.4836 25.2685C31.6196 23.9764 31.8463 23.2332 32.0257 22.8631L28.9999 21.396ZM28.1393 24.9165L24.7951 24.5644C24.6217 26.2121 24.5419 28.2309 24.5419 30.5883H27.9046H31.2674C31.2674 28.3561 31.3441 26.5937 31.4836 25.2685L28.1393 24.9165ZM27.9046 30.5883H24.5419V31.3706H27.9046H31.2674V30.5883H27.9046ZM27.9046 31.3706H24.5419C24.5419 33.6532 24.6219 35.6214 24.7958 37.2442L28.1393 36.886L31.4829 36.5277C31.3439 35.2299 31.2674 33.5211 31.2674 31.3706H27.9046ZM28.1393 36.886L24.7958 37.2442C24.974 38.908 25.3224 40.4896 25.9655 41.8361L28.9999 40.3869L32.0343 38.9376C31.8429 38.5369 31.6176 37.7846 31.4829 36.5277L28.1393 36.886ZM28.9999 40.3869L25.9832 41.8727C26.6967 43.3212 27.7816 44.5123 29.2383 45.3003L30.8383 42.3427L32.4384 39.385C32.3044 39.3125 32.1637 39.1997 32.0166 38.901L28.9999 40.3869ZM30.8383 42.3427L29.2584 45.3111C30.5727 46.0107 32.0769 46.3709 33.6263 46.529L33.9676 43.1836L34.309 39.8383C33.3028 39.7356 32.7208 39.5352 32.4183 39.3742L30.8383 42.3427ZM33.9676 43.1836L33.6263 46.529C35.0555 46.6748 36.7485 46.742 38.6811 46.742V43.3792V40.0165C36.8846 40.0165 35.4354 39.9532 34.309 39.8383L33.9676 43.1836ZM71.3782 46H68.0155V49.3627H71.3782V46ZM71.3782 15.9589V12.5962H68.0155V15.9589H71.3782ZM75.2898 15.9589L77.4555 13.3864L76.5168 12.5962H75.2898V15.9589ZM105.468 41.3648L103.302 43.9372L104.241 44.7275H105.468V41.3648ZM105.507 41.3648V44.7275H108.87V41.3648H105.507ZM105.507 15.9589V12.5962H102.144V15.9589H105.507ZM109.262 15.9589H112.625V12.5962H109.262V15.9589ZM109.262 46V49.3627H112.625V46H109.262ZM105.35 46L103.174 48.5635L104.115 49.3627H105.35V46ZM75.1724 20.379L77.3488 17.8156L76.4074 17.0163H75.1724V20.379ZM75.1333 20.379V17.0163H71.7706V20.379H75.1333ZM75.1333 46V49.3627H78.496V46H75.1333ZM71.3782 46H74.7409V15.9589H71.3782H68.0155V46H71.3782ZM71.3782 15.9589V19.3216H75.2898V15.9589V12.5962H71.3782V15.9589ZM75.2898 15.9589L73.1241 18.5314L103.302 43.9372L105.468 41.3648L107.633 38.7923L77.4555 13.3864L75.2898 15.9589ZM105.468 41.3648V44.7275H105.507V41.3648V38.002H105.468V41.3648ZM105.507 41.3648H108.87V15.9589H105.507H102.144V41.3648H105.507ZM105.507 15.9589V19.3216H109.262V15.9589V12.5962H105.507V15.9589ZM109.262 15.9589H105.899V46H109.262H112.625V15.9589H109.262ZM109.262 46V42.6373H105.35V46V49.3627H109.262V46ZM105.35 46L107.527 43.4365L77.3488 17.8156L75.1724 20.379L72.9961 22.9425L103.174 48.5635L105.35 46ZM75.1724 20.379V17.0163H75.1333V20.379V23.7417H75.1724V20.379ZM75.1333 20.379H71.7706V46H75.1333H78.496V20.379H75.1333ZM75.1333 46V42.6373H71.3782V46V49.3627H75.1333V46ZM120.797 46H117.435V49.3627H120.797V46ZM120.797 15.9589V12.5962H117.435V15.9589H120.797ZM124.552 15.9589H127.915V12.5962H124.552V15.9589ZM124.552 46V49.3627H127.915V46H124.552ZM120.797 46H124.16V15.9589H120.797H117.435V46H120.797ZM120.797 15.9589V19.3216H124.552V15.9589V12.5962H120.797V15.9589ZM124.552 15.9589H121.19V46H124.552H127.915V15.9589H124.552ZM124.552 46V42.6373H120.797V46V49.3627H124.552V46ZM135.208 23.8995L138.536 24.3818L138.536 24.3784L135.208 23.8995ZM139.158 16.8781L137.558 13.9207L137.551 13.9247L137.543 13.9287L139.158 16.8781ZM143.324 15.6655L143.741 19.0023L143.754 19.0007L143.767 18.999L143.324 15.6655ZM164.017 15.7242L163.544 19.0536L163.557 19.0555L163.571 19.0572L164.017 15.7242ZM168.476 17.2302L166.596 20.0181L166.614 20.0307L166.633 20.043L168.476 17.2302ZM170.94 20.5355L167.764 21.6413L167.768 21.6502L170.94 20.5355ZM171.703 26.3051V29.6678H175.066V26.3051H171.703ZM167.948 26.3051H164.585V29.6678H167.948V26.3051ZM167.439 21.9045L164.237 22.9323L164.241 22.9439L167.439 21.9045ZM165.718 19.6163L164.009 22.5123L164.019 22.5183L164.03 22.5243L165.718 19.6163ZM162.452 18.7557L162.167 22.1064L162.183 22.1077L162.199 22.1089L162.452 18.7557ZM144.635 18.7557L144.908 22.1073L144.925 22.1059L144.942 22.1043L144.635 18.7557ZM141.505 19.5185L142.989 22.536L142.999 22.5311L143.009 22.5262L141.505 19.5185ZM139.667 21.396L136.659 19.8922L136.65 19.9105L136.641 19.929L139.667 21.396ZM139.667 40.3869L136.633 41.8361L136.641 41.8544L136.65 41.8727L139.667 40.3869ZM141.505 42.3427L139.905 45.3003L139.915 45.3057L139.925 45.3111L141.505 42.3427ZM165.718 42.4404L164.101 39.492L164.091 39.4975L164.081 39.5032L165.718 42.4404ZM167.439 40.2304L170.633 41.2816L170.637 41.2698L167.439 40.2304ZM167.948 35.8494V32.4867H164.585V35.8494H167.948ZM171.703 35.8494H175.066V32.4867H171.703V35.8494ZM168.476 44.8461L170.288 47.679L170.296 47.6737L168.476 44.8461ZM164.017 46.2738L163.594 42.9378L163.591 42.9382L164.017 46.2738ZM142.112 46.0196L142.815 42.7311L142.804 42.7288L142.793 42.7266L142.112 46.0196ZM137.672 43.8291L135.28 46.1922L135.287 46.1996L135.294 46.2069L137.672 43.8291ZM135.442 39.2134L132.15 39.8975L132.152 39.9077L132.154 39.918L135.442 39.2134ZM134.817 31.3706H138.179V30.5883H134.817H131.454V31.3706H134.817ZM134.817 30.5883H138.179C138.179 28.0232 138.306 25.9668 138.536 24.3818L135.208 23.8995L131.88 23.4171C131.588 25.4308 131.454 27.8336 131.454 30.5883H134.817ZM135.208 23.8995L138.536 24.3784C138.76 22.823 139.117 21.7865 139.487 21.1296L136.557 19.4793L133.627 17.8291C132.719 19.4409 132.177 21.3511 131.879 23.4205L135.208 23.8995ZM136.557 19.4793L139.487 21.1296C139.832 20.5181 140.253 20.1124 140.774 19.8276L139.158 16.8781L137.543 13.9287C135.873 14.8434 134.561 16.1719 133.627 17.8291L136.557 19.4793ZM139.158 16.8781L140.759 19.8356C141.399 19.489 142.356 19.1754 143.741 19.0023L143.324 15.6655L142.907 12.3288C140.954 12.5729 139.134 13.0678 137.558 13.9207L139.158 16.8781ZM143.324 15.6655L143.767 18.999C145.245 18.8027 147.096 18.6958 149.348 18.6958V15.3331V11.9703C146.906 11.9703 144.742 12.085 142.882 12.3321L143.324 15.6655ZM149.348 15.3331V18.6958H157.23V15.3331V11.9703H149.348V15.3331ZM157.23 15.3331V18.6958C159.821 18.6958 161.914 18.8224 163.544 19.0536L164.017 15.7242L164.489 12.3948C162.442 12.1045 160.011 11.9703 157.23 11.9703V15.3331ZM164.017 15.7242L163.571 19.0572C165.093 19.261 166.036 19.6405 166.596 20.0181L168.476 17.2302L170.356 14.4422C168.673 13.3074 166.643 12.6829 164.463 12.3912L164.017 15.7242ZM168.476 17.2302L166.633 20.043C167.062 20.3238 167.464 20.7785 167.764 21.6413L170.94 20.5355L174.116 19.4297C173.399 17.3718 172.159 15.623 170.319 14.4174L168.476 17.2302ZM170.94 20.5355L167.768 21.6502C168.1 22.5961 168.34 24.0963 168.34 26.3051H171.703H175.066C175.066 23.7156 174.797 21.3694 174.113 19.4208L170.94 20.5355ZM171.703 26.3051V22.9424H167.948V26.3051V29.6678H171.703V26.3051ZM167.948 26.3051H171.311C171.311 24.2778 171.137 22.4014 170.637 20.8652L167.439 21.9045L164.241 22.9439C164.42 23.4939 164.585 24.5512 164.585 26.3051H167.948ZM167.439 21.9045L170.641 20.8768C170.098 19.1846 169.065 17.6712 167.407 16.7082L165.718 19.6163L164.03 22.5243C164.037 22.5284 164.045 22.5319 164.067 22.5617C164.095 22.5987 164.164 22.705 164.237 22.9323L167.439 21.9045ZM165.718 19.6163L167.427 16.7203C166.022 15.8907 164.366 15.5279 162.705 15.4025L162.452 18.7557L162.199 22.1089C163.302 22.1922 163.824 22.403 164.009 22.5123L165.718 19.6163ZM162.452 18.7557L162.736 15.405C161.225 15.2767 159.381 15.217 157.23 15.217V18.5797V21.9424C159.277 21.9424 160.915 22 162.167 22.1064L162.452 18.7557ZM157.23 18.5797V15.217H149.348V18.5797V21.9424H157.23V18.5797ZM149.348 18.5797V15.217C147.422 15.217 145.741 15.2772 144.327 15.4071L144.635 18.7557L144.942 22.1043C146.083 21.9995 147.545 21.9424 149.348 21.9424V18.5797ZM144.635 18.7557L144.361 15.4041C142.82 15.5299 141.319 15.852 140.001 16.5108L141.505 19.5185L143.009 22.5262C143.308 22.3766 143.893 22.1901 144.908 22.1073L144.635 18.7557ZM141.505 19.5185L140.021 16.5009C138.509 17.2448 137.388 18.4337 136.659 19.8922L139.667 21.396L142.675 22.8999C142.806 22.6372 142.911 22.5745 142.989 22.536L141.505 19.5185ZM139.667 21.396L136.641 19.929C135.986 21.28 135.639 22.8837 135.462 24.5644L138.806 24.9165L142.151 25.2685C142.287 23.9764 142.513 23.2332 142.693 22.8631L139.667 21.396ZM138.806 24.9165L135.462 24.5644C135.289 26.2121 135.209 28.2309 135.209 30.5883H138.572H141.934C141.934 28.3561 142.011 26.5937 142.151 25.2685L138.806 24.9165ZM138.572 30.5883H135.209V31.3706H138.572H141.934V30.5883H138.572ZM138.572 31.3706H135.209C135.209 33.6532 135.289 35.6214 135.463 37.2442L138.806 36.886L142.15 36.5277C142.011 35.2299 141.934 33.5211 141.934 31.3706H138.572ZM138.806 36.886L135.463 37.2442C135.641 38.908 135.989 40.4896 136.633 41.8361L139.667 40.3869L142.701 38.9376C142.51 38.5369 142.285 37.7846 142.15 36.5277L138.806 36.886ZM139.667 40.3869L136.65 41.8727C137.364 43.3212 138.449 44.5123 139.905 45.3003L141.505 42.3427L143.105 39.385C142.971 39.3125 142.831 39.1997 142.684 38.901L139.667 40.3869ZM141.505 42.3427L139.925 45.3111C141.24 46.0107 142.744 46.3709 144.293 46.529L144.635 43.1836L144.976 39.8383C143.97 39.7356 143.388 39.5352 143.085 39.3742L141.505 42.3427ZM144.635 43.1836L144.293 46.529C145.722 46.6748 147.416 46.742 149.348 46.742V43.3792V40.0165C147.552 40.0165 146.102 39.9532 144.976 39.8383L144.635 43.1836ZM149.348 43.3792V46.742H157.23V43.3792V40.0165H149.348V43.3792ZM157.23 43.3792V46.742C159.37 46.742 161.191 46.6957 162.674 46.5977L162.452 43.2423L162.23 39.8869C160.949 39.9715 159.289 40.0165 157.23 40.0165V43.3792ZM162.452 43.2423L162.674 46.5977C164.318 46.4892 165.958 46.1567 167.355 45.3777L165.718 42.4404L164.081 39.5032C163.888 39.6108 163.351 39.8129 162.23 39.8869L162.452 43.2423ZM165.718 42.4404L167.335 45.3889C169.02 44.4649 170.078 42.9691 170.633 41.2816L167.439 40.2304L164.245 39.1791C164.177 39.3854 164.116 39.4705 164.102 39.4893C164.094 39.4992 164.092 39.4995 164.097 39.4955C164.102 39.4915 164.105 39.4901 164.101 39.492L165.718 42.4404ZM167.439 40.2304L170.637 41.2698C171.136 39.7351 171.311 37.8666 171.311 35.8494H167.948H164.585C164.585 37.5874 164.42 38.6394 164.241 39.191L167.439 40.2304ZM167.948 35.8494V39.2121H171.703V35.8494V32.4867H167.948V35.8494ZM171.703 35.8494H168.34C168.34 38.0602 168.099 39.5488 167.771 40.4757L170.94 41.5994L174.11 42.7232C174.798 40.7816 175.066 38.4368 175.066 35.8494H171.703ZM170.94 41.5994L167.771 40.4757C167.478 41.3028 167.085 41.7423 166.656 42.0185L168.476 44.8461L170.296 47.6737C172.136 46.4895 173.386 44.7646 174.11 42.7232L170.94 41.5994ZM168.476 44.8461L166.664 42.0132C166.096 42.3763 165.137 42.7422 163.594 42.9378L164.017 46.2738L164.439 49.6098C166.599 49.336 168.613 48.7502 170.288 47.679L168.476 44.8461ZM164.017 46.2738L163.591 42.9382C161.941 43.1488 159.831 43.2631 157.23 43.2631V46.6259V49.9886C160.001 49.9886 162.416 49.8682 164.442 49.6095L164.017 46.2738ZM157.23 46.6259V43.2631H149.348V46.6259V49.9886H157.23V46.6259ZM149.348 46.6259V43.2631C146.543 43.2631 144.388 43.0676 142.815 42.7311L142.112 46.0196L141.409 49.308C143.616 49.7799 146.286 49.9886 149.348 49.9886V46.6259ZM142.112 46.0196L142.793 42.7266C141.368 42.4318 140.542 41.9434 140.05 41.4513L137.672 43.8291L135.294 46.2069C136.94 47.8531 139.074 48.825 141.43 49.3125L142.112 46.0196ZM137.672 43.8291L140.064 41.4659C139.596 40.9914 139.074 40.112 138.73 38.5088L135.442 39.2134L132.154 39.918C132.671 42.3306 133.636 44.5284 135.28 46.1922L137.672 43.8291ZM135.442 39.2134L138.735 38.5292C138.383 36.8358 138.179 34.4755 138.179 31.3706H134.817H131.454C131.454 34.7068 131.667 37.575 132.15 39.8975L135.442 39.2134Z" fill="url(#paint0_linear_1195_133)"/>
<path d="M34.2485 72.2375L33.497 73.7105L33.509 73.7166L33.5211 73.7225L34.2485 72.2375ZM31.74 71.7094L31.6119 73.358L31.6199 73.3587L31.6279 73.3592L31.74 71.7094ZM27.086 71.5278L27.1137 69.8744L27.1098 69.8744L27.086 71.5278ZM17.9101 71.3958L17.886 73.0493L17.8863 73.0493L17.9101 71.3958ZM9.32827 69.8445L8.33609 71.1674L8.34276 71.1724L8.34947 71.1773L9.32827 69.8445ZM7.90897 67.732L6.30953 68.1519L6.31198 68.1612L6.31454 68.1705L7.90897 67.732ZM8.041 60.8666L6.48165 60.3162L6.47876 60.3244L6.47595 60.3326L8.041 60.8666ZM9.80687 58.6716L8.94019 57.2633L8.93209 57.2683L9.80687 58.6716ZM13.4376 57.5659L13.6569 59.2049L13.6683 59.2034L13.4376 57.5659ZM37.6152 60.8501L36.0513 61.3872L36.0537 61.3942L36.0562 61.4013L37.6152 60.8501ZM38.1929 65.339V66.9927H39.8465V65.339H38.1929ZM35.0242 65.339H33.3706V66.9927H35.0242V65.339ZM34.5951 62.0053L33.0404 62.5686L33.0453 62.5823L33.0505 62.5959L34.5951 62.0053ZM33.2088 60.454L32.5542 61.9726L32.5636 61.9766L33.2088 60.454ZM14.9229 60.0909L14.816 58.4408L14.815 58.4408L14.9229 60.0909ZM11.0281 61.9393L9.46514 61.3994L9.46073 61.4121L9.45653 61.425L11.0281 61.9393ZM11.9028 67.8146L11.0755 69.2464L11.0942 69.2572L11.1132 69.2675L11.9028 67.8146ZM14.2298 68.3922L14.0567 70.0367L14.0653 70.0376L14.0738 70.0384L14.2298 68.3922ZM18.5042 68.5737L18.5264 66.9202L18.5244 66.9202L18.5042 68.5737ZM28.3403 68.7057L28.3639 67.0523L28.3625 67.0523L28.3403 68.7057ZM33.8689 69.1183L33.5823 70.7469L33.5897 70.7482L33.5971 70.7495L33.8689 69.1183ZM36.9716 70.2571L35.9593 71.5647L35.9694 71.5724L36.9716 70.2571ZM38.3414 72.4025L36.7349 72.7944L36.7377 72.806L36.7407 72.8175L38.3414 72.4025ZM38.2589 79.532L36.6675 79.0823L36.6643 79.094L38.2589 79.532ZM36.6415 81.9415L35.6465 80.6208L36.6415 81.9415ZM10.1039 82.1561L9.18281 83.5294L9.19243 83.5358L9.20214 83.5422L10.1039 82.1561ZM7.56239 74.713V73.0594H5.90877V74.713H7.56239ZM10.7311 74.713H12.3847V73.0594H10.7311V74.713ZM12.4309 80.1427L11.5838 81.5628L11.5984 81.5715L11.6132 81.5799L12.4309 80.1427ZM15.088 80.8028L14.9759 82.4526L14.9843 82.4532L14.9927 82.4537L15.088 80.8028ZM31.674 80.7203L31.8479 82.3647L31.8557 82.3639L31.8635 82.363L31.674 80.7203ZM34.2155 79.9941L35.1069 81.3869L35.1167 81.3807L35.1264 81.3743L34.2155 79.9941ZM35.2717 78.4428L33.666 78.0479L33.6629 78.0604L33.66 78.0729L35.2717 78.4428ZM35.5193 75.7857H37.1729C37.1729 74.7446 37.0937 73.8054 36.8829 73.0375L35.2882 73.4752L33.6936 73.913C33.7909 74.2673 33.8657 74.8685 33.8657 75.7857H35.5193ZM35.2882 73.4752L36.8829 73.0375C36.5988 72.0028 35.9255 71.2175 34.9759 70.7524L34.2485 72.2375L33.5211 73.7225C33.6074 73.7648 33.6377 73.7979 33.6466 73.8086C33.6546 73.8181 33.6746 73.8436 33.6936 73.913L35.2882 73.4752ZM34.2485 72.2375L35 70.7645C34.1561 70.3339 33.0471 70.1408 31.8521 70.0596L31.74 71.7094L31.6279 73.3592C32.6994 73.432 33.2627 73.5909 33.497 73.7105L34.2485 72.2375ZM31.74 71.7094L31.868 70.0607C30.6859 69.9689 29.0962 69.9077 27.1137 69.8744L27.086 71.5278L27.0583 73.1812C29.0146 73.214 30.5276 73.2738 31.6119 73.358L31.74 71.7094ZM27.086 71.5278L27.1098 69.8744L17.9339 69.7424L17.9101 71.3958L17.8863 73.0493L27.0622 73.1813L27.086 71.5278ZM17.9101 71.3958L17.9342 69.7424C15.7087 69.71 13.9862 69.575 12.7341 69.3546L12.4474 70.9832L12.1608 72.6118C13.6593 72.8755 15.5785 73.0157 17.886 73.0493L17.9101 71.3958ZM12.4474 70.9832L12.7341 69.3546C11.4755 69.1331 10.7195 68.8145 10.3071 68.5117L9.32827 69.8445L8.34947 71.1773C9.34534 71.9087 10.6688 72.3492 12.1608 72.6118L12.4474 70.9832ZM9.32827 69.8445L10.3204 68.5216C9.92102 68.222 9.65215 67.8345 9.5034 67.2936L7.90897 67.732L6.31454 68.1705C6.64989 69.39 7.32721 70.4107 8.33609 71.1674L9.32827 69.8445ZM7.90897 67.732L9.5084 67.3122C9.32549 66.6154 9.21602 65.6675 9.21602 64.4313H7.56239H5.90877C5.90877 65.8357 6.03034 67.0883 6.30953 68.1519L7.90897 67.732ZM7.56239 64.4313H9.21602C9.21602 63.0961 9.36586 62.1045 9.60604 61.4005L8.041 60.8666L6.47595 60.3326C6.07799 61.4991 5.90877 62.884 5.90877 64.4313H7.56239ZM8.041 60.8666L9.60035 61.4169C9.80467 60.838 10.1505 60.406 10.6816 60.0749L9.80687 58.6716L8.93209 57.2683C7.76888 57.9935 6.93746 59.0248 6.48165 60.3162L8.041 60.8666ZM9.80687 58.6716L10.6735 60.0799C11.2547 59.7223 12.2084 59.3987 13.6569 59.2049L13.4376 57.5659L13.2183 55.9269C11.5422 56.1511 10.0754 56.5647 8.94021 57.2633L9.80687 58.6716ZM13.4376 57.5659L13.6683 59.2034C15.124 58.9983 17.0579 58.8894 19.4944 58.8894V57.2358V55.5822C16.9798 55.5822 14.8759 55.6934 13.207 55.9284L13.4376 57.5659ZM19.4944 57.2358V58.8894H26.5579V57.2358V55.5822H19.4944V57.2358ZM26.5579 57.2358V58.8894C28.7727 58.8894 30.5864 58.9602 32.0117 59.0965L32.1691 57.4504L32.3264 55.8042C30.7591 55.6544 28.832 55.5822 26.5579 55.5822V57.2358ZM32.1691 57.4504L32.0117 59.0965C33.372 59.2265 34.2984 59.5152 34.8962 59.8663L35.7338 58.4406L36.5715 57.0148C35.4089 56.3318 33.9588 55.9603 32.3264 55.8042L32.1691 57.4504ZM35.7338 58.4406L34.8962 59.8663C35.3922 60.1577 35.7879 60.6204 36.0513 61.3872L37.6152 60.8501L39.1792 60.313C38.6944 58.9013 37.8359 57.7577 36.5715 57.0148L35.7338 58.4406ZM37.6152 60.8501L36.0562 61.4013C36.3512 62.2359 36.5392 63.5181 36.5392 65.339H38.1929H39.8465C39.8465 63.3531 39.6494 61.6428 39.1743 60.2989L37.6152 60.8501ZM38.1929 65.339V63.6854H35.0242V65.339V66.9927H38.1929V65.339ZM35.0242 65.339H36.6778C36.6778 63.8033 36.535 62.4488 36.1397 61.4148L34.5951 62.0053L33.0505 62.5959C33.2273 63.0581 33.3706 63.9262 33.3706 65.339H35.0242ZM34.5951 62.0053L36.1498 61.442C35.7431 60.3196 34.9896 59.4126 33.854 58.9314L33.2088 60.454L32.5636 61.9766C32.7262 62.0455 32.8969 62.1728 33.0404 62.5686L34.5951 62.0053ZM33.2088 60.454L33.8634 58.9354C32.9494 58.5415 31.8463 58.3793 30.6512 58.3551L30.6178 60.0084L30.5844 61.6617C31.5677 61.6816 32.1919 61.8164 32.5543 61.9726L33.2088 60.454ZM30.6178 60.0084L30.6512 58.3551C29.5469 58.3328 28.1816 58.3218 26.5579 58.3218V59.9754V61.629C28.1689 61.629 29.5102 61.64 30.5844 61.6617L30.6178 60.0084ZM26.5579 59.9754V58.3218H19.6594V59.9754V61.629H26.5579V59.9754ZM19.6594 59.9754V58.3218C17.6741 58.3218 16.0552 58.3604 14.816 58.4408L14.9229 60.0909L15.0299 61.7411C16.1672 61.6674 17.7059 61.629 19.6594 61.629V59.9754ZM14.9229 60.0909L14.815 58.4408C13.5683 58.5224 12.4415 58.7153 11.5651 59.1136L12.2494 60.619L12.9337 62.1244C13.2676 61.9727 13.9231 61.8135 15.0309 61.741L14.9229 60.0909ZM12.2494 60.619L11.5651 59.1136C10.5648 59.5683 9.82854 60.3474 9.46514 61.3994L11.0281 61.9393L12.5911 62.4793C12.6458 62.321 12.7237 62.2199 12.9337 62.1244L12.2494 60.619ZM11.0281 61.9393L9.45653 61.425C9.18012 62.2696 9.07744 63.2995 9.07744 64.4313H10.7311H12.3847C12.3847 63.4507 12.48 62.8193 12.5997 62.4537L11.0281 61.9393ZM10.7311 64.4313H9.07744C9.07744 65.3913 9.15241 66.2663 9.34728 67.0008L10.9456 66.5768L12.5439 66.1527C12.4527 65.809 12.3847 65.2537 12.3847 64.4313H10.7311ZM10.9456 66.5768L9.34728 67.0008C9.60623 67.9769 10.2104 68.7465 11.0755 69.2464L11.9028 67.8146L12.7301 66.3827C12.605 66.3105 12.571 66.2549 12.5439 66.1527L10.9456 66.5768ZM11.9028 67.8146L11.1132 69.2675C11.9081 69.6995 12.944 69.9196 14.0567 70.0367L14.2298 68.3922L14.4029 66.7476C13.4252 66.6447 12.9098 66.4797 12.6924 66.3616L11.9028 67.8146ZM14.2298 68.3922L14.0738 70.0384C15.1849 70.1437 16.6615 70.205 18.484 70.2272L18.5042 68.5737L18.5244 66.9202C16.7382 66.8984 15.3651 66.8387 14.3858 66.7459L14.2298 68.3922ZM18.5042 68.5737L18.482 70.2272L28.3181 70.3592L28.3403 68.7057L28.3625 67.0523L18.5264 66.9202L18.5042 68.5737ZM28.3403 68.7057L28.3167 70.3592C30.588 70.3916 32.3316 70.5268 33.5823 70.7469L33.8689 69.1183L34.1556 67.4897C32.6557 67.2258 30.7135 67.0859 28.3639 67.0523L28.3403 68.7057ZM33.8689 69.1183L33.5971 70.7495C34.8647 70.9607 35.5887 71.2777 35.9593 71.5646L36.9716 70.2571L37.9839 68.9495C36.9902 68.1802 35.6458 67.738 34.1408 67.4872L33.8689 69.1183ZM36.9716 70.2571L35.9694 71.5724C36.3407 71.8553 36.5982 72.2342 36.7349 72.7944L38.3414 72.4025L39.9479 72.0107C39.6445 70.7665 38.9888 69.7151 37.9738 68.9417L36.9716 70.2571ZM38.3414 72.4025L36.7407 72.8175C36.9241 73.5251 37.0343 74.5011 37.0343 75.7857H38.688H40.3416C40.3416 74.3418 40.2207 73.0623 39.9421 71.9875L38.3414 72.4025ZM38.688 75.7857H37.0343C37.0343 77.1762 36.8992 78.2628 36.6676 79.0823L38.2589 79.532L39.8502 79.9817C40.1907 78.7768 40.3416 77.3659 40.3416 75.7857H38.688ZM38.2589 79.532L36.6643 79.094C36.4827 79.7551 36.1477 80.2432 35.6465 80.6208L36.6415 81.9415L37.6366 83.2623C38.7417 82.4296 39.4849 81.3113 39.8534 79.9701L38.2589 79.532ZM36.6415 81.9415L35.6465 80.6208C35.1349 81.0063 34.2611 81.3753 32.876 81.6161L33.1593 83.2453L33.4426 84.8745C35.0942 84.5872 36.5419 84.0871 37.6366 83.2623L36.6415 81.9415ZM33.1593 83.2453L32.876 81.6161C31.4899 81.8572 29.5987 81.9878 27.1685 81.9878V83.6414V85.295C29.6894 85.295 31.7921 85.1615 33.4426 84.8745L33.1593 83.2453ZM27.1685 83.6414V81.9878H19.4449V83.6414V85.295H27.1685V83.6414ZM19.4449 83.6414V81.9878C17.2312 81.9878 15.4149 81.8902 13.9801 81.7044L13.7677 83.3443L13.5553 84.9843C15.1791 85.1945 17.1477 85.295 19.4449 85.295V83.6414ZM13.7677 83.3443L13.9801 81.7044C12.6013 81.5259 11.6432 81.1847 11.0057 80.77L10.1039 82.1561L9.20214 83.5422C10.391 84.3157 11.8754 84.7667 13.5553 84.9843L13.7677 83.3443ZM10.1039 82.1561L11.0251 80.7828C10.4722 80.412 10.0241 79.8395 9.72528 78.9431L8.15652 79.466L6.58776 79.9889C7.08111 81.469 7.93127 82.6899 9.18281 83.5294L10.1039 82.1561ZM8.15652 79.466L9.72528 78.9431C9.40829 77.9921 9.21602 76.6064 9.21602 74.713H7.56239H5.90877C5.90877 76.7804 6.11258 78.5634 6.58776 79.9889L8.15652 79.466ZM7.56239 74.713V76.3666H10.7311V74.713V73.0594H7.56239V74.713ZM10.7311 74.713H9.07744C9.07744 76.3233 9.20525 77.7096 9.5262 78.784L11.1106 78.3108L12.6951 77.8375C12.5099 77.2176 12.3847 76.2054 12.3847 74.713H10.7311ZM11.1106 78.3108L9.5262 78.784C9.87145 79.9399 10.5292 80.9337 11.5838 81.5628L12.4309 80.1427L13.278 78.7225C13.0784 78.6034 12.8559 78.376 12.6951 77.8375L11.1106 78.3108ZM12.4309 80.1427L11.6132 81.5799C12.5536 82.115 13.7169 82.3671 14.9759 82.4526L15.088 80.8028L15.2001 79.153C14.1925 79.0845 13.5845 78.8965 13.2487 78.7054L12.4309 80.1427ZM15.088 80.8028L14.9927 82.4537C16.1807 82.5222 17.6676 82.5554 19.4449 82.5554V80.9018V79.2482C17.7014 79.2482 16.2838 79.2154 15.1832 79.1519L15.088 80.8028ZM19.4449 80.9018V82.5554H27.0035V80.9018V79.2482H19.4449V80.9018ZM27.0035 80.9018V82.5554C28.9964 82.5554 30.6195 82.4947 31.8479 82.3647L31.674 80.7203L31.5 79.0758C30.44 79.188 28.9494 79.2482 27.0035 79.2482V80.9018ZM31.674 80.7203L31.8635 82.363C33.0946 82.221 34.2402 81.9416 35.1069 81.3869L34.2155 79.9941L33.3241 78.6013C33.0906 78.7508 32.5419 78.9555 31.4844 79.0776L31.674 80.7203ZM34.2155 79.9941L35.1264 81.3743C36.0485 80.7657 36.639 79.8777 36.8835 78.8127L35.2717 78.4428L33.66 78.0729C33.5964 78.3502 33.4828 78.4964 33.3046 78.614L34.2155 79.9941ZM35.2717 78.4428L36.8775 78.8377C37.0873 77.9845 37.1729 76.9506 37.1729 75.7857H35.5193H33.8657C33.8657 76.8213 33.7862 77.5588 33.666 78.0479L35.2717 78.4428ZM57.8287 83.1133L56.3447 83.8427L56.7989 84.7669H57.8287V83.1133ZM45.3686 57.7639V56.1103H42.7132L43.8845 58.4934L45.3686 57.7639ZM49.0158 57.7639L50.5054 57.0458L50.0543 56.1103H49.0158V57.7639ZM59.9411 80.4232L58.4516 81.1414L59.9854 84.3225L61.4466 81.1074L59.9411 80.4232ZM70.2393 57.7639V56.1103H69.1745L68.7339 57.0797L70.2393 57.7639ZM73.9361 57.7639L75.4415 57.0797L75.0009 56.1103H73.9361V57.7639ZM84.2343 80.4232L82.7288 81.1074L84.2664 84.4906L85.7503 81.0835L84.2343 80.4232ZM94.1033 57.7639V56.1103H93.0199L92.5873 57.1036L94.1033 57.7639ZM97.7506 57.7639L99.2587 58.4424L100.308 56.1103H97.7506V57.7639ZM86.3467 83.1133V84.7669H87.416L87.8548 83.7917L86.3467 83.1133ZM82.1218 83.1133L80.6154 83.7953L81.0553 84.7669H82.1218V83.1133ZM72.0877 60.9491L73.5941 60.2671L72.0877 56.9396L70.5813 60.2671L72.0877 60.9491ZM62.0536 83.1133V84.7669H63.1202L63.56 83.7953L62.0536 83.1133ZM57.8287 83.1133L59.3127 82.3838L46.8526 57.0345L45.3686 57.7639L43.8845 58.4934L56.3447 83.8427L57.8287 83.1133ZM45.3686 57.7639V59.4176H49.0158V57.7639V56.1103H45.3686V57.7639ZM49.0158 57.7639L47.5263 58.4821L58.4516 81.1414L59.9411 80.4232L61.4307 79.705L50.5054 57.0458L49.0158 57.7639ZM59.9411 80.4232L61.4466 81.1074L71.7448 58.4481L70.2393 57.7639L68.7339 57.0797L58.4357 79.739L59.9411 80.4232ZM70.2393 57.7639V59.4176H73.9361V57.7639V56.1103H70.2393V57.7639ZM73.9361 57.7639L72.4307 58.4481L82.7288 81.1074L84.2343 80.4232L85.7397 79.739L75.4415 57.0797L73.9361 57.7639ZM84.2343 80.4232L85.7503 81.0835L95.6194 58.4242L94.1033 57.7639L92.5873 57.1036L82.7182 79.7629L84.2343 80.4232ZM94.1033 57.7639V59.4176H97.7506V57.7639V56.1103H94.1033V57.7639ZM97.7506 57.7639L96.2426 57.0855L84.8387 82.4349L86.3467 83.1133L87.8548 83.7917L99.2587 58.4424L97.7506 57.7639ZM86.3467 83.1133V81.4597H82.1218V83.1133V84.7669H86.3467V83.1133ZM82.1218 83.1133L83.6283 82.4313L73.5941 60.2671L72.0877 60.9491L70.5813 61.6311L80.6154 83.7953L82.1218 83.1133ZM72.0877 60.9491L70.5813 60.2671L60.5471 82.4313L62.0536 83.1133L63.56 83.7953L73.5941 61.6311L72.0877 60.9491ZM62.0536 83.1133V81.4597H57.8287V83.1133V84.7669H62.0536V83.1133ZM101.18 83.1133L99.7517 82.2801L98.301 84.7669H101.18V83.1133ZM115.967 57.7639V56.1103H115.017L114.539 56.9307L115.967 57.7639ZM120.192 57.7639L121.62 56.9307L121.142 56.1103H120.192V57.7639ZM134.979 83.1133V84.7669H137.858L136.408 82.2801L134.979 83.1133ZM131.282 83.1133L129.831 83.9051L130.301 84.7669H131.282V83.1133ZM128.114 77.3041L129.565 76.5122L129.095 75.6504H128.114V77.3041ZM108.045 77.3041V75.6504H107.064L106.594 76.5122L108.045 77.3041ZM104.877 83.1133V84.7669H105.858L106.329 83.9051L104.877 83.1133ZM109.63 74.6635L108.194 73.8431L106.78 76.3171H109.63V74.6635ZM126.529 74.6635V76.3171H129.379L127.965 73.8431L126.529 74.6635ZM118.08 59.8764L119.515 59.056L118.08 56.5434L116.644 59.056L118.08 59.8764ZM101.18 83.1133L102.608 83.9465L117.396 58.5971L115.967 57.7639L114.539 56.9307L99.7517 82.2801L101.18 83.1133ZM115.967 57.7639V59.4176H120.192V57.7639V56.1103H115.967V57.7639ZM120.192 57.7639L118.764 58.5971L133.551 83.9465L134.979 83.1133L136.408 82.2801L121.62 56.9307L120.192 57.7639ZM134.979 83.1133V81.4597H131.282V83.1133V84.7669H134.979V83.1133ZM131.282 83.1133L132.734 82.3214L129.565 76.5122L128.114 77.3041L126.662 78.0959L129.831 83.9051L131.282 83.1133ZM128.114 77.3041V75.6504H108.045V77.3041V78.9577H128.114V77.3041ZM108.045 77.3041L106.594 76.5122L103.425 82.3214L104.877 83.1133L106.329 83.9051L109.497 78.0959L108.045 77.3041ZM104.877 83.1133V81.4597H101.18V83.1133V84.7669H104.877V83.1133ZM109.63 74.6635V76.3171H126.529V74.6635V73.0099H109.63V74.6635ZM126.529 74.6635L127.965 73.8431L119.515 59.056L118.08 59.8764L116.644 60.6968L125.094 75.4839L126.529 74.6635ZM118.08 59.8764L116.644 59.056L108.194 73.8431L109.63 74.6635L111.066 75.4839L119.515 60.6968L118.08 59.8764ZM142.65 83.1133H140.996V84.7669H142.65V83.1133ZM142.65 57.7639V56.1103H140.996V57.7639H142.65ZM165.59 58.127L165.328 59.7597L165.329 59.76L165.59 58.127ZM169.039 59.3483L168.062 60.6824L168.068 60.6869L168.074 60.6913L169.039 59.3483ZM170.623 61.6423L169.033 62.0942L169.034 62.0989L170.623 61.6423ZM170.607 69.3659L169.022 68.8924L169.019 68.9043L170.607 69.3659ZM165.507 72.9471L165.791 74.5763L165.802 74.5743L165.507 72.9471ZM145.819 73.3432V71.6896H144.165V73.3432H145.819ZM145.819 83.1133V84.7669H147.472V83.1133H145.819ZM163.725 60.6685L163.571 62.315L163.579 62.3157L163.586 62.3163L163.725 60.6685ZM145.819 60.5035V58.8499H144.165V60.5035H145.819ZM145.819 70.6036H144.165V72.2573H145.819V70.6036ZM163.725 70.4221L163.894 72.0671L163.902 72.0663L163.909 72.0654L163.725 70.4221ZM166.382 69.729L167.185 71.1745L167.195 71.1688L167.205 71.1631L166.382 69.729ZM167.57 68.2932L169.145 68.7992L169.147 68.7911L167.57 68.2932ZM142.65 83.1133H144.304V57.7639H142.65H140.996V83.1133H142.65ZM142.65 57.7639V59.4176H159.616V57.7639V56.1103H142.65V57.7639ZM159.616 57.7639V59.4176C162.05 59.4176 163.943 59.5374 165.328 59.7597L165.59 58.127L165.852 56.4943C164.222 56.2325 162.132 56.1103 159.616 56.1103V57.7639ZM165.59 58.127L165.329 59.76C166.725 59.9825 167.582 60.3305 168.062 60.6824L169.039 59.3483L170.016 58.0142C168.934 57.2218 167.491 56.7556 165.85 56.494L165.59 58.127ZM169.039 59.3483L168.074 60.6913C168.537 61.0239 168.855 61.4672 169.033 62.0941L170.623 61.6423L172.214 61.1904C171.842 59.8809 171.103 58.7949 170.004 58.0052L169.039 59.3483ZM170.623 61.6423L169.034 62.0989C169.252 62.8586 169.382 63.8866 169.382 65.2235H171.036H172.69C172.69 63.6999 172.545 62.3403 172.213 61.1856L170.623 61.6423ZM171.036 65.2235H169.382V65.8836H171.036H172.69V65.2235H171.036ZM171.036 65.8836H169.382C169.382 67.1418 169.249 68.1333 169.023 68.8924L170.607 69.3659L172.191 69.8394C172.537 68.684 172.69 67.3541 172.69 65.8836H171.036ZM170.607 69.3659L169.019 68.9043C168.847 69.4952 168.526 69.9526 168.018 70.3217L168.99 71.6599L169.961 72.998C171.059 72.2009 171.816 71.1289 172.195 69.8275L170.607 69.3659ZM168.99 71.6599L168.018 70.3217C167.497 70.7003 166.609 71.0671 165.213 71.32L165.507 72.9471L165.802 74.5743C167.443 74.2771 168.876 73.7857 169.961 72.998L168.99 71.6599ZM165.507 72.9471L165.224 71.318C163.838 71.559 161.947 71.6896 159.517 71.6896V73.3432V74.9968C162.037 74.9968 164.14 74.8634 165.791 74.5763L165.507 72.9471ZM159.517 73.3432V71.6896H145.819V73.3432V74.9968H159.517V73.3432ZM145.819 73.3432H144.165V83.1133H145.819H147.472V73.3432H145.819ZM145.819 83.1133V81.4597H142.65V83.1133V84.7669H145.819V83.1133ZM167.867 65.2235H169.521C169.521 64.0965 169.417 63.0713 169.147 62.217L167.57 62.715L165.993 63.2129C166.12 63.6129 166.214 64.2601 166.214 65.2235H167.867ZM167.57 62.715L169.147 62.217C168.816 61.1674 168.127 60.356 167.164 59.8388L166.382 61.2957L165.6 62.7525C165.825 62.8735 165.929 63.0082 165.993 63.2129L167.57 62.715ZM166.382 61.2957L167.164 59.8388C166.274 59.3607 165.122 59.1266 163.864 59.0207L163.725 60.6685L163.586 62.3163C164.682 62.4085 165.302 62.5925 165.6 62.7525L166.382 61.2957ZM163.725 60.6685L163.879 59.0221C162.628 58.9052 160.997 58.8499 159.005 58.8499V60.5035V62.1571C160.952 62.1571 162.467 62.2118 163.571 62.315L163.725 60.6685ZM159.005 60.5035V58.8499H145.819V60.5035V62.1571H159.005V60.5035ZM145.819 60.5035H144.165V70.6036H145.819H147.472V60.5035H145.819ZM145.819 70.6036V72.2573H159.005V70.6036V68.95H145.819V70.6036ZM159.005 70.6036V72.2573C160.999 72.2573 162.636 72.1964 163.894 72.0671L163.725 70.4221L163.556 68.7772C162.459 68.8899 160.95 68.95 159.005 68.95V70.6036ZM163.725 70.4221L163.909 72.0654C165.166 71.9244 166.308 71.6619 167.185 71.1745L166.382 69.729L165.579 68.2834C165.268 68.4561 164.638 68.6557 163.541 68.7788L163.725 70.4221ZM166.382 69.729L167.205 71.1631C168.134 70.6301 168.813 69.8318 169.145 68.7992L167.57 68.2932L165.996 67.7871C165.932 67.9867 165.819 68.1457 165.559 68.2948L166.382 69.729ZM167.57 68.2932L169.147 68.7911C169.414 67.9448 169.521 66.9576 169.521 65.8836H167.867H166.214C166.214 66.7681 166.122 67.3872 165.993 67.7952L167.57 68.2932ZM167.867 65.8836H169.521V65.2235H167.867H166.214V65.8836H167.867Z" fill="url(#paint1_linear_1195_133)"/>
<defs>
<linearGradient id="paint0_linear_1195_133" x1="8.56448" y1="14.2522" x2="178.303" y2="18.5814" gradientUnits="userSpaceOnUse">
<stop stop-color="#62B6DB"/>
<stop offset="1" stop-color="#8C7AE4"/>
</linearGradient>
<linearGradient id="paint1_linear_1195_133" x1="12.8401" y1="59.699" x2="173.148" y2="66.1152" gradientUnits="userSpaceOnUse">
<stop stop-color="#62B6DB"/>
<stop offset="1" stop-color="#8C7AE4"/>
</linearGradient>
</defs>
</svg>
