<svg width="100" height="100" viewBox="0 0 100 100" fill="none" xmlns="http://www.w3.org/2000/svg">
<g clip-path="url(#clip0_1204_4)">
<path fill-rule="evenodd" clip-rule="evenodd" d="M98.4911 22.1493C105.087 34.478 89.3483 56.4237 62.0859 71.0085C60.4601 71.8783 58.7738 72.8215 57.1225 73.6553C56.163 74.1397 55.0342 74.1243 54.0669 73.6558V73.6558C53.285 73.2771 52.748 72.5282 52.6403 71.6661L52.6024 71.3629C52.5035 70.5722 52.8389 69.785 53.5066 69.3498C55.2936 68.1849 57.2735 67.1737 59.1186 66.1866C81.6503 54.1326 98.0127 35.3174 92.501 25.0149C86.9373 17.5966 61.9004 17.5967 40.0163 30.3933C35.9588 32.564 32.7669 34.7218 29.4553 37.1627C28.7561 37.6781 27.8405 37.8002 27.034 37.4775V37.4775C26.1301 37.116 25.5196 36.261 25.4709 35.2887L25.4505 34.8791C25.3973 33.8169 25.888 32.8009 26.7462 32.1726C30.136 29.6907 33.0666 27.4301 37.2345 25.2004C58.1913 12.5893 91.8954 9.82057 98.4911 22.1493ZM41.5001 74.3959C26.2925 77.8704 10.6405 79.4248 6.63404 71.9358C2.93794 65.027 10.8995 53.761 20.6456 43.0043L18.3178 38.7389C3.12869 51.3427 -3.2367 66.1835 1.62659 75.2741C6.78586 84.9179 31.4853 85.2888 44.8383 77.8705L41.5001 74.3959Z" fill="url(#paint0_linear_1204_4)"/>
<path fill-rule="evenodd" clip-rule="evenodd" d="M16.5262 6.2837C29.4191 -2.85448 49.8456 9.60371 57.0785 16.7071C58.0887 17.6991 57.3136 19.5571 56.0935 20.2753L55.2239 20.7872L54.3524 21.3022C53.7014 21.6868 52.9048 21.7934 52.2036 21.5107C51.2817 21.1391 51.3418 20.8912 50.2165 19.3035C43.3546 13.3689 29.2598 5.02324 20.1023 11.5692C13.1249 20.7872 17.205 32.8419 27.9616 54.5405C30.619 58.8587 32.384 61.2434 34.9881 64.3585C35.574 65.0592 35.7645 66.0115 35.4823 66.8802C35.1821 67.8045 34.3971 68.4881 33.4403 68.6583L33.2316 68.6955C32.1552 68.887 31.06 68.4751 30.3771 67.6214C27.8815 64.5016 25.6579 61.6933 22.9542 57.8787C12.7541 42.3003 5.11885 14.369 16.5262 6.2837Z" fill="url(#paint1_linear_1204_4)"/>
<path fill-rule="evenodd" clip-rule="evenodd" d="M84.1554 92.3363C71.4992 101.799 50.5875 90.4817 39.4601 80.096C39.2798 79.9278 39.3269 79.8632 39.0431 79.3221C38.5438 78.3704 38.346 77.2754 38.6639 76.2487C38.9209 75.4188 39.5806 74.7754 40.4167 74.5393L40.7108 74.4563C41.4777 74.2398 42.3005 74.4585 42.8761 75.0096C44.445 76.5115 46.1793 78.0462 47.4346 79.7251C58.138 86.1912 71.0885 94.1402 80.4461 87.1435C88.0499 79.7251 82.4861 56.5429 66.7831 36.3057C64.0275 32.6203 61.4147 29.7888 58.5041 26.8814C57.8895 26.2675 57.6312 25.3807 57.829 24.5349C58.0507 23.5869 58.8042 22.8549 59.7582 22.6607L60.1601 22.5789C61.2023 22.3669 62.2805 22.6994 63.0306 23.4534C65.9935 26.4319 68.6687 28.9897 71.4992 32.7753C87.3082 50.2373 95.3535 83.9635 84.1554 92.3363Z" fill="url(#paint2_linear_1204_4)"/>
<path d="M62.4567 48.1973C62.4567 55.2646 56.7275 60.9939 49.6601 60.9939C42.5928 60.9938 36.8635 55.2646 36.8635 48.1972C36.8635 41.1299 42.5928 35.4006 49.6601 35.4007C56.7275 35.4007 62.4567 41.1299 62.4567 48.1973Z" fill="url(#paint3_linear_1204_4)"/>
</g>
<defs>
<linearGradient id="paint0_linear_1204_4" x1="23.2343" y1="87.27" x2="23.756" y2="12.8457" gradientUnits="userSpaceOnUse">
<stop stop-color="#4F8CEE"/>
<stop offset="1" stop-color="#64C4AA"/>
</linearGradient>
<linearGradient id="paint1_linear_1204_4" x1="23.2343" y1="87.27" x2="23.756" y2="12.8457" gradientUnits="userSpaceOnUse">
<stop stop-color="#4F8CEE"/>
<stop offset="1" stop-color="#64C4AA"/>
</linearGradient>
<linearGradient id="paint2_linear_1204_4" x1="23.2343" y1="87.27" x2="23.756" y2="12.8457" gradientUnits="userSpaceOnUse">
<stop stop-color="#4F8CEE"/>
<stop offset="1" stop-color="#64C4AA"/>
</linearGradient>
<linearGradient id="paint3_linear_1204_4" x1="23.2343" y1="87.27" x2="23.756" y2="12.8457" gradientUnits="userSpaceOnUse">
<stop stop-color="#4F8CEE"/>
<stop offset="1" stop-color="#64C4AA"/>
</linearGradient>
<clipPath id="clip0_1204_4">
<rect width="100" height="100" fill="white"/>
</clipPath>
</defs>
</svg>
