<svg width="512" height="512" viewBox="0 0 512 512" fill="none" xmlns="http://www.w3.org/2000/svg">
<g clip-path="url(#clip0_1294_2)">
<path fill-rule="evenodd" clip-rule="evenodd" d="M498.405 115.499C531.257 176.907 452.866 286.215 317.075 358.861C308.977 363.193 300.578 367.891 292.353 372.044C287.574 374.457 281.952 374.38 277.133 372.047V372.047C273.239 370.16 270.564 366.43 270.027 362.136L269.839 360.626C269.346 356.687 271.017 352.766 274.342 350.599C283.244 344.797 293.105 339.76 302.295 334.843C414.523 274.804 496.022 181.088 468.569 129.772C440.857 92.8225 316.151 92.8228 207.149 156.561C186.939 167.373 171.041 178.121 154.546 190.279C151.063 192.846 146.503 193.454 142.486 191.847V191.847C137.983 190.046 134.943 185.788 134.7 180.945L134.598 178.905C134.334 173.614 136.778 168.553 141.052 165.424C157.936 153.062 172.534 141.802 193.293 130.696C297.677 67.8815 465.553 54.091 498.405 115.499ZM214.54 375.733C138.793 393.039 60.8318 400.781 40.876 363.48C22.4662 329.067 62.1218 272.953 110.666 219.375L99.0716 198.13C23.4164 260.908 -8.2889 334.828 15.9345 380.107C41.6322 428.142 164.657 429.989 231.167 393.039L214.54 375.733Z" fill="url(#paint0_linear_1294_2)"/>
<path fill-rule="evenodd" clip-rule="evenodd" d="M90.1479 36.4743C154.366 -9.04187 256.108 53.0108 292.134 88.3918C297.165 93.3332 293.305 102.587 287.228 106.165L282.896 108.714L278.555 111.279C275.313 113.195 271.345 113.726 267.852 112.318C263.261 110.467 263.56 109.232 257.955 101.324C223.777 71.7646 153.572 30.1961 107.96 62.8007C73.2064 108.714 93.5287 168.758 147.106 276.836C160.342 298.344 169.133 310.222 182.104 325.738C185.022 329.228 185.971 333.971 184.566 338.298C183.071 342.902 179.16 346.307 174.395 347.155L173.355 347.34C167.994 348.294 162.539 346.242 159.137 341.99C146.707 326.45 135.632 312.463 122.165 293.463C71.3591 215.868 33.3291 76.7463 90.1479 36.4743Z" fill="url(#paint1_linear_1294_2)"/>
<path fill-rule="evenodd" clip-rule="evenodd" d="M427.001 465.092C363.962 512.227 259.803 455.854 204.379 404.125C203.481 403.287 203.715 402.965 202.302 400.27C199.814 395.529 198.829 390.075 200.413 384.961C201.693 380.828 204.979 377.623 209.144 376.447L210.608 376.034C214.428 374.956 218.526 376.044 221.393 378.789C229.208 386.271 237.846 393.915 244.099 402.277C297.411 434.484 361.916 474.077 408.525 439.227C446.399 402.277 418.686 286.809 340.471 186.01C326.746 167.654 313.732 153.55 299.235 139.069C296.173 136.011 294.887 131.594 295.872 127.381C296.976 122.659 300.73 119.013 305.481 118.046L307.483 117.639C312.674 116.583 318.044 118.239 321.78 121.995C336.539 136.83 349.863 149.57 363.962 168.426C442.704 255.402 482.777 423.388 427.001 465.092Z" fill="url(#paint2_linear_1294_2)"/>
<path d="M318.922 245.241C318.922 280.442 290.386 308.979 255.184 308.979C219.982 308.979 191.446 280.442 191.446 245.241C191.446 210.039 219.982 181.502 255.184 181.502C290.386 181.502 318.922 210.039 318.922 245.241Z" fill="url(#paint3_linear_1294_2)"/>
</g>
<defs>
<linearGradient id="paint0_linear_1294_2" x1="123.56" y1="439.857" x2="126.158" y2="69.1589" gradientUnits="userSpaceOnUse">
<stop stop-color="#4F8CEE"/>
<stop offset="1" stop-color="#64C4AA"/>
</linearGradient>
<linearGradient id="paint1_linear_1294_2" x1="123.56" y1="439.857" x2="126.158" y2="69.1589" gradientUnits="userSpaceOnUse">
<stop stop-color="#4F8CEE"/>
<stop offset="1" stop-color="#64C4AA"/>
</linearGradient>
<linearGradient id="paint2_linear_1294_2" x1="123.56" y1="439.857" x2="126.158" y2="69.1589" gradientUnits="userSpaceOnUse">
<stop stop-color="#4F8CEE"/>
<stop offset="1" stop-color="#64C4AA"/>
</linearGradient>
<linearGradient id="paint3_linear_1294_2" x1="123.56" y1="439.857" x2="126.158" y2="69.1589" gradientUnits="userSpaceOnUse">
<stop stop-color="#4F8CEE"/>
<stop offset="1" stop-color="#64C4AA"/>
</linearGradient>
<clipPath id="clip0_1294_2">
<rect width="512" height="512" fill="white"/>
</clipPath>
</defs>
</svg>
