<svg width="195" height="79" viewBox="0 0 195 79" fill="none" xmlns="http://www.w3.org/2000/svg">
<path d="M82.2586 39H80.0364V41.2222H82.2586V39ZM82.2586 19.1476V16.9254H80.0364V19.1476H82.2586ZM84.7401 19.1476H86.9624V16.9254H84.7401V19.1476ZM84.7401 39V41.2222H86.9624V39H84.7401ZM82.2586 39H84.4808V19.1476H82.2586H80.0364V39H82.2586ZM82.2586 19.1476V21.3699H84.7401V19.1476V16.9254H82.2586V19.1476ZM84.7401 19.1476H82.5179V39H84.7401H86.9624V19.1476H84.7401ZM84.7401 39V36.7778H82.2586V39V41.2222H84.7401V39ZM96.344 39.0129L96.8085 36.8398L96.8014 36.8383L96.7942 36.8368L96.344 39.0129ZM93.41 37.5654L91.8291 39.1271L91.8387 39.1367L93.41 37.5654ZM91.9366 34.5151L89.7608 34.9672L89.7637 34.9807L91.9366 34.5151ZM91.7815 24.3951L93.9808 24.7138L93.9811 24.7116L91.7815 24.3951ZM94.3923 19.7551L93.3346 17.8007L93.325 17.806L94.3923 19.7551ZM97.1453 18.9538L97.4209 21.1588L97.4294 21.1578L97.4379 21.1566L97.1453 18.9538ZM110.316 18.9538L110.023 21.1566L110.031 21.1578L110.04 21.1588L110.316 18.9538ZM113.056 19.7551L111.988 21.7042L111.998 21.7095L113.056 19.7551ZM115.679 24.3951L113.48 24.7116L113.48 24.7138L115.679 24.3951ZM115.511 34.5151L113.338 34.0495L113.336 34.063L115.511 34.5151ZM114.038 37.5654L112.467 35.994L112.457 36.0037L114.038 37.5654ZM111.117 39.0129L110.667 36.8368L110.659 36.8383L110.652 36.8398L111.117 39.0129ZM111.505 36.5831L110.461 34.6214L110.454 34.625L110.447 34.6285L111.505 36.5831ZM112.72 35.2906L110.726 34.3087L110.72 34.3208L110.714 34.3329L112.72 35.2906ZM112.72 22.7407L110.72 23.7102L110.726 23.7224L110.732 23.7345L112.72 22.7407ZM111.505 21.4999L110.498 23.481L110.517 23.4908L110.537 23.5003L111.505 21.4999ZM109.45 20.9959L109.246 23.2088L109.258 23.2098L109.269 23.2107L109.45 20.9959ZM98.0112 20.9959L98.192 23.2107L98.2033 23.2098L98.2145 23.2088L98.0112 20.9959ZM95.9433 21.4999L96.924 23.494L96.9306 23.4908L96.9371 23.4876L95.9433 21.4999ZM94.7284 22.7407L92.7407 21.7469L92.7347 21.759L92.7288 21.7712L94.7284 22.7407ZM94.7284 35.2906L92.7231 36.2483L92.7289 36.2605L92.7348 36.2725L94.7284 35.2906ZM95.9433 36.5831L94.8859 38.5376L94.8925 38.5412L94.8992 38.5447L95.9433 36.5831ZM101.126 39.4136V37.1914C99.2722 37.1914 97.8484 37.0621 96.8085 36.8398L96.344 39.0129L95.8794 41.186C97.3382 41.4979 99.1026 41.6358 101.126 41.6358V39.4136ZM96.344 39.0129L96.7942 36.8368C95.8527 36.642 95.3066 36.3192 94.9814 35.994L93.41 37.5654L91.8387 39.1367C92.9266 40.2246 94.3364 40.8669 95.8937 41.1891L96.344 39.0129ZM93.41 37.5654L94.991 36.0037C94.6812 35.6901 94.3365 35.109 94.1095 34.0495L91.9366 34.5151L89.7637 34.9807C90.1054 36.5751 90.743 38.0275 91.8291 39.127L93.41 37.5654ZM91.9366 34.5151L94.1124 34.063C93.8798 32.9439 93.7453 31.3841 93.7453 29.3323H91.523H89.3008C89.3008 31.537 89.442 33.4324 89.7609 34.9672L91.9366 34.5151ZM91.523 29.3323H93.7453V28.8153H91.523H89.3008V29.3323H91.523ZM91.523 28.8153H93.7453C93.7453 27.1202 93.829 25.7612 93.9808 24.7138L91.7815 24.3951L89.5823 24.0763C89.3894 25.4071 89.3008 26.9949 89.3008 28.8153H91.523ZM91.7815 24.3951L93.9811 24.7116C94.129 23.6837 94.365 22.9988 94.6096 22.5646L92.6733 21.4741L90.7371 20.3836C90.1372 21.4487 89.7787 22.711 89.582 24.0786L91.7815 24.3951ZM92.6733 21.4741L94.6096 22.5646C94.8372 22.1605 95.116 21.8924 95.4597 21.7042L94.3923 19.7551L93.325 17.806C92.2211 18.4105 91.3539 19.2884 90.7371 20.3836L92.6733 21.4741ZM94.3923 19.7551L95.45 21.7095C95.8732 21.4804 96.5056 21.2732 97.4209 21.1588L97.1453 18.9538L96.8696 16.7487C95.5791 16.91 94.3762 17.237 93.3347 17.8007L94.3923 19.7551ZM97.1453 18.9538L97.4379 21.1566C98.4144 21.0269 99.638 20.9563 101.126 20.9563V18.734V16.5118C99.5123 16.5118 98.082 16.5876 96.8527 16.7509L97.1453 18.9538ZM101.126 18.734V20.9563H106.335V18.734V16.5118H101.126V18.734ZM106.335 18.734V20.9563C107.823 20.9563 109.046 21.0269 110.023 21.1566L110.316 18.9538L110.608 16.7509C109.379 16.5876 107.949 16.5118 106.335 16.5118V18.734ZM110.316 18.9538L110.04 21.1588C110.956 21.2733 111.579 21.48 111.988 21.7042L113.056 19.7551L114.123 17.806C113.085 17.2374 111.881 16.91 110.591 16.7487L110.316 18.9538ZM113.056 19.7551L111.998 21.7095C112.349 21.8996 112.627 22.1673 112.851 22.5646L114.788 21.4741L116.724 20.3836C116.103 19.2817 115.227 18.4033 114.113 17.8007L113.056 19.7551ZM114.788 21.4741L112.851 22.5646C113.096 22.9988 113.332 23.6837 113.48 24.7116L115.679 24.3951L117.879 24.0786C117.682 22.711 117.324 21.4487 116.724 20.3836L114.788 21.4741ZM115.679 24.3951L113.48 24.7138C113.632 25.7612 113.716 27.1202 113.716 28.8153H115.938H118.16C118.16 26.9949 118.071 25.4071 117.879 24.0763L115.679 24.3951ZM115.938 28.8153H113.716V29.3323H115.938H118.16V28.8153H115.938ZM115.938 29.3323H113.716C113.716 31.3816 113.577 32.9363 113.338 34.0495L115.511 34.5151L117.684 34.9807C118.014 33.44 118.16 31.5395 118.16 29.3323H115.938ZM115.511 34.5151L113.336 34.063C113.117 35.1129 112.776 35.6849 112.467 35.994L114.038 37.5654L115.609 39.1367C116.713 38.0327 117.354 36.5712 117.687 34.9672L115.511 34.5151ZM114.038 37.5654L112.457 36.0037C112.144 36.3206 111.608 36.642 110.667 36.8368L111.117 39.0129L111.567 41.1891C113.125 40.8668 114.536 40.2232 115.619 39.127L114.038 37.5654ZM111.117 39.0129L110.652 36.8398C109.612 37.0621 108.189 37.1914 106.335 37.1914V39.4136V41.6358C108.358 41.6358 110.123 41.4979 111.581 41.186L111.117 39.0129ZM106.335 39.4136V37.1914H101.126V39.4136V41.6358H106.335V39.4136ZM101.126 37.2681V39.4903H106.335V37.2681V35.0459H101.126V37.2681ZM106.335 37.2681V39.4903C107.612 39.4903 108.731 39.446 109.675 39.3496L109.45 37.1388L109.224 34.9281C108.48 35.0041 107.522 35.0459 106.335 35.0459V37.2681ZM109.45 37.1388L109.675 39.3496C110.698 39.2452 111.695 39.0069 112.562 38.5376L111.505 36.5831L110.447 34.6285C110.263 34.728 109.89 34.8601 109.224 34.9281L109.45 37.1388ZM111.505 36.5831L112.549 38.5447C113.527 38.0239 114.257 37.2283 114.725 36.2483L112.72 35.2906L110.714 34.3329C110.631 34.5075 110.55 34.5736 110.461 34.6214L111.505 36.5831ZM112.72 35.2906L114.713 36.2725C115.155 35.3743 115.392 34.3197 115.511 33.2138L113.301 32.9771L111.092 32.7403C111.003 33.5645 110.852 34.0523 110.726 34.3087L112.72 35.2906ZM113.301 32.9771L115.511 33.2138C115.626 32.1414 115.678 30.8408 115.678 29.3323H113.456H111.234C111.234 30.7535 111.183 31.8827 111.092 32.7403L113.301 32.9771ZM113.456 29.3323H115.678V28.8153H113.456H111.234V29.3323H113.456ZM113.456 28.8153H115.678C115.678 27.2575 115.626 25.9233 115.511 24.8345L113.301 25.0672L111.091 25.2998C111.183 26.1755 111.234 27.3402 111.234 28.8153H113.456ZM113.301 25.0672L115.511 24.8345C115.394 23.7176 115.158 22.6482 114.707 21.7469L112.72 22.7407L110.732 23.7345C110.85 23.9705 111.002 24.4522 111.091 25.2998L113.301 25.0672ZM112.72 22.7407L114.719 21.7712C114.24 20.7839 113.487 19.9905 112.473 19.4996L111.505 21.4999L110.537 23.5003C110.591 23.5263 110.647 23.5601 110.72 23.7102L112.72 22.7407ZM111.505 21.4999L112.511 19.5189C111.642 19.0769 110.647 18.864 109.63 18.781L109.45 20.9959L109.269 23.2107C109.941 23.2656 110.316 23.3887 110.498 23.481L111.505 21.4999ZM109.45 20.9959L109.653 18.783C108.718 18.6971 107.607 18.6573 106.335 18.6573V20.8795V23.1018C107.526 23.1018 108.492 23.1395 109.246 23.2088L109.45 20.9959ZM106.335 20.8795V18.6573H101.126V20.8795V23.1018H106.335V20.8795ZM101.126 20.8795V18.6573C99.8535 18.6573 98.7427 18.6971 97.808 18.783L98.0112 20.9959L98.2145 23.2088C98.9686 23.1395 99.9344 23.1018 101.126 23.1018V20.8795ZM98.0112 20.9959L97.8304 18.781C96.8123 18.8641 95.8202 19.077 94.9495 19.5123L95.9433 21.4999L96.9371 23.4876C97.1348 23.3887 97.5213 23.2655 98.192 23.2107L98.0112 20.9959ZM95.9433 21.4999L94.9626 19.5058C93.963 19.9974 93.2226 20.7831 92.7407 21.7469L94.7284 22.7407L96.716 23.7345C96.8028 23.5609 96.8723 23.5195 96.924 23.494L95.9433 21.4999ZM94.7284 22.7407L92.7288 21.7712C92.2959 22.664 92.0666 23.7238 91.9497 24.8345L94.1597 25.0672L96.3697 25.2998C96.4596 24.4459 96.6094 23.9548 96.7279 23.7102L94.7284 22.7407ZM94.1597 25.0672L91.9497 24.8345C91.835 25.9233 91.7824 27.2575 91.7824 28.8153H94.0046H96.2268C96.2268 27.3402 96.2775 26.1755 96.3697 25.2998L94.1597 25.0672ZM94.0046 28.8153H91.7824V29.3323H94.0046H96.2268V28.8153H94.0046ZM94.0046 29.3323H91.7824C91.7824 30.8408 91.8352 32.1414 91.9501 33.2138L94.1597 32.9771L96.3692 32.7403C96.2774 31.8827 96.2268 30.7535 96.2268 29.3323H94.0046ZM94.1597 32.9771L91.9501 33.2138C92.0679 34.3133 92.2981 35.3585 92.7231 36.2483L94.7284 35.2906L96.7336 34.3329C96.6071 34.0681 96.4582 33.571 96.3692 32.7403L94.1597 32.9771ZM94.7284 35.2906L92.7348 36.2725C93.2063 37.2297 93.9233 38.0168 94.8859 38.5376L95.9433 36.5831L97.0007 34.6285C96.9121 34.5806 96.8191 34.5061 96.7219 34.3087L94.7284 35.2906ZM95.9433 36.5831L94.8992 38.5447C95.7678 39.007 96.7618 39.2451 97.7857 39.3496L98.0112 37.1388L98.2368 34.9281C97.5719 34.8602 97.1873 34.7278 96.9874 34.6214L95.9433 36.5831ZM98.0112 37.1388L97.7857 39.3496C98.7301 39.446 99.849 39.4903 101.126 39.4903V37.2681V35.0459C99.9389 35.0459 98.9812 35.0041 98.2368 34.9281L98.0112 37.1388ZM122.734 39H120.511V41.2222H122.734V39ZM122.734 19.1476V16.9254H120.511V19.1476H122.734ZM125.319 19.1476L126.75 17.4476L126.129 16.9254H125.319V19.1476ZM145.261 35.9368L143.83 37.6368L144.451 38.1591H145.261V35.9368ZM145.287 35.9368V38.1591H147.509V35.9368H145.287ZM145.287 19.1476V16.9254H143.065V19.1476H145.287ZM147.769 19.1476H149.991V16.9254H147.769V19.1476ZM147.769 39V41.2222H149.991V39H147.769ZM145.184 39L143.746 40.694L144.368 41.2222H145.184V39ZM125.241 22.0686L126.679 20.3746L126.057 19.8464H125.241V22.0686ZM125.215 22.0686V19.8464H122.993V22.0686H125.215ZM125.215 39V41.2222H127.437V39H125.215ZM122.734 39H124.956V19.1476H122.734H120.511V39H122.734ZM122.734 19.1476V21.3699H125.319V19.1476V16.9254H122.734V19.1476ZM125.319 19.1476L123.887 20.8476L143.83 37.6368L145.261 35.9368L146.693 34.2368L126.75 17.4476L125.319 19.1476ZM145.261 35.9368V38.1591H145.287V35.9368V33.7146H145.261V35.9368ZM145.287 35.9368H147.509V19.1476H145.287H143.065V35.9368H145.287ZM145.287 19.1476V21.3699H147.769V19.1476V16.9254H145.287V19.1476ZM147.769 19.1476H145.547V39H147.769H149.991V19.1476H147.769ZM147.769 39V36.7778H145.184V39V41.2222H147.769V39ZM145.184 39L146.622 37.306L126.679 20.3746L125.241 22.0686L123.803 23.7627L143.746 40.694L145.184 39ZM125.241 22.0686V19.8464H125.215V22.0686V24.2908H125.241V22.0686ZM125.215 22.0686H122.993V39H125.215H127.437V22.0686H125.215ZM125.215 39V36.7778H122.734V39V41.2222H125.215V39ZM155.392 39H153.17V41.2222H155.392V39ZM155.392 19.1476V16.9254H153.17V19.1476H155.392ZM157.873 19.1476H160.096V16.9254H157.873V19.1476ZM157.873 39V41.2222H160.096V39H157.873ZM155.392 39H157.614V19.1476H155.392H153.17V39H155.392ZM155.392 19.1476V21.3699H157.873V19.1476V16.9254H155.392V19.1476ZM157.873 19.1476H155.651V39H157.873H160.096V19.1476H157.873ZM157.873 39V36.7778H155.392V39V41.2222H157.873V39ZM164.915 24.3951L167.114 24.7138L167.114 24.7116L164.915 24.3951ZM167.526 19.7551L166.468 17.8007L166.458 17.806L167.526 19.7551ZM170.278 18.9538L170.554 21.1588L170.563 21.1578L170.571 21.1566L170.278 18.9538ZM183.953 18.9925L183.641 21.1927L183.649 21.194L183.658 21.1951L183.953 18.9925ZM186.9 19.9877L185.657 21.8301L185.669 21.8384L185.682 21.8465L186.9 19.9877ZM188.528 22.172L186.43 22.9028L186.432 22.9087L188.528 22.172ZM189.032 25.9848V28.207H191.254V25.9848H189.032ZM186.551 25.9848H184.328V28.207H186.551V25.9848ZM186.215 23.0767L184.099 23.7559L184.101 23.7636L186.215 23.0767ZM185.077 21.5646L183.948 23.4784L183.955 23.4824L183.961 23.4863L185.077 21.5646ZM182.919 20.9959L182.731 23.2101L182.741 23.211L182.752 23.2118L182.919 20.9959ZM171.144 20.9959L171.325 23.2107L171.336 23.2098L171.348 23.2088L171.144 20.9959ZM169.076 21.4999L170.057 23.494L170.064 23.4908L170.07 23.4876L169.076 21.4999ZM167.862 22.7407L165.874 21.7469L165.868 21.759L165.862 21.7712L167.862 22.7407ZM167.862 35.2906L165.856 36.2483L165.862 36.2605L165.868 36.2725L167.862 35.2906ZM169.076 36.5831L168.019 38.5376L168.026 38.5412L168.032 38.5447L169.076 36.5831ZM185.077 36.6477L184.009 34.6992L184.002 34.7029L183.995 34.7066L185.077 36.6477ZM186.215 35.1872L188.326 35.8819L188.328 35.8741L186.215 35.1872ZM186.551 32.2921V30.0699H184.328V32.2921H186.551ZM189.032 32.2921H191.254V30.0699H189.032V32.2921ZM186.9 38.2374L188.097 40.1096L188.102 40.106L186.9 38.2374ZM183.953 39.1809L183.673 36.9764L183.671 36.9766L183.953 39.1809ZM169.477 39.0129L169.942 36.8398L169.935 36.8383L169.927 36.8368L169.477 39.0129ZM166.543 37.5654L164.962 39.1271L164.972 39.1367L166.543 37.5654ZM165.07 34.5151L162.894 34.9672L162.897 34.9807L165.07 34.5151ZM164.656 29.3323H166.878V28.8153H164.656H162.434V29.3323H164.656ZM164.656 28.8153H166.878C166.878 27.1202 166.962 25.7612 167.114 24.7138L164.915 24.3951L162.715 24.0763C162.523 25.4071 162.434 26.9949 162.434 28.8153H164.656ZM164.915 24.3951L167.114 24.7116C167.262 23.6837 167.498 22.9988 167.743 22.5646L165.807 21.4741L163.87 20.3836C163.27 21.4487 162.912 22.711 162.715 24.0786L164.915 24.3951ZM165.807 21.4741L167.743 22.5646C167.97 22.1605 168.249 21.8924 168.593 21.7042L167.526 19.7551L166.458 17.806C165.354 18.4105 164.487 19.2884 163.87 20.3836L165.807 21.4741ZM167.526 19.7551L168.583 21.7095C169.006 21.4804 169.639 21.2732 170.554 21.1588L170.278 18.9538L170.003 16.7487C168.712 16.91 167.509 17.237 166.468 17.8007L167.526 19.7551ZM170.278 18.9538L170.571 21.1566C171.548 21.0269 172.771 20.9563 174.259 20.9563V18.734V16.5118C172.645 16.5118 171.215 16.5876 169.986 16.7509L170.278 18.9538ZM174.259 18.734V20.9563H179.468V18.734V16.5118H174.259V18.734ZM179.468 18.734V20.9563C181.18 20.9563 182.564 21.04 183.641 21.1927L183.953 18.9925L184.265 16.7923C182.912 16.6005 181.306 16.5118 179.468 16.5118V18.734ZM183.953 18.9925L183.658 21.1951C184.664 21.3298 185.287 21.5806 185.657 21.8301L186.9 19.9877L188.142 18.1454C187.03 17.3954 185.688 16.9827 184.248 16.7899L183.953 18.9925ZM186.9 19.9877L185.682 21.8465C185.965 22.0321 186.231 22.3326 186.43 22.9028L188.528 22.172L190.627 21.4412C190.153 20.0814 189.334 18.9256 188.118 18.1289L186.9 19.9877ZM188.528 22.172L186.432 22.9087C186.651 23.5338 186.81 24.5252 186.81 25.9848H189.032H191.254C191.254 24.2736 191.077 22.7231 190.625 21.4354L188.528 22.172ZM189.032 25.9848V23.7626H186.551V25.9848V28.207H189.032V25.9848ZM186.551 25.9848H188.773C188.773 24.6451 188.658 23.4051 188.328 22.3899L186.215 23.0767L184.101 23.7636C184.219 24.127 184.328 24.8257 184.328 25.9848H186.551ZM186.215 23.0767L188.331 22.3976C187.972 21.2793 187.289 20.2792 186.193 19.6428L185.077 21.5646L183.961 23.4863C183.966 23.489 183.972 23.4914 183.986 23.511C184.005 23.5355 184.051 23.6057 184.099 23.7559L186.215 23.0767ZM185.077 21.5646L186.207 19.6508C185.278 19.1026 184.184 18.8628 183.086 18.78L182.919 20.9959L182.752 23.2118C183.481 23.2668 183.825 23.4061 183.948 23.4784L185.077 21.5646ZM182.919 20.9959L183.107 18.7816C182.108 18.6968 180.89 18.6573 179.468 18.6573V20.8795V23.1018C180.821 23.1018 181.903 23.1398 182.731 23.2101L182.919 20.9959ZM179.468 20.8795V18.6573H174.259V20.8795V23.1018H179.468V20.8795ZM174.259 20.8795V18.6573C172.987 18.6573 171.876 18.6971 170.941 18.783L171.144 20.9959L171.348 23.2088C172.102 23.1395 173.068 23.1018 174.259 23.1018V20.8795ZM171.144 20.9959L170.964 18.781C169.946 18.8641 168.953 19.077 168.083 19.5123L169.076 21.4999L170.07 23.4876C170.268 23.3887 170.655 23.2655 171.325 23.2107L171.144 20.9959ZM169.076 21.4999L168.096 19.5058C167.096 19.9974 166.356 20.7831 165.874 21.7469L167.862 22.7407L169.849 23.7345C169.936 23.5609 170.006 23.5195 170.057 23.494L169.076 21.4999ZM167.862 22.7407L165.862 21.7712C165.429 22.664 165.2 23.7238 165.083 24.8345L167.293 25.0672L169.503 25.2998C169.593 24.4459 169.743 23.9548 169.861 23.7102L167.862 22.7407ZM167.293 25.0672L165.083 24.8345C164.968 25.9233 164.916 27.2575 164.916 28.8153H167.138H169.36C169.36 27.3402 169.411 26.1755 169.503 25.2998L167.293 25.0672ZM167.138 28.8153H164.916V29.3323H167.138H169.36V28.8153H167.138ZM167.138 29.3323H164.916C164.916 30.8408 164.968 32.1414 165.083 33.2138L167.293 32.9771L169.502 32.7403C169.411 31.8827 169.36 30.7535 169.36 29.3323H167.138ZM167.293 32.9771L165.083 33.2138C165.201 34.3133 165.431 35.3585 165.856 36.2483L167.862 35.2906L169.867 34.3329C169.74 34.0681 169.591 33.571 169.502 32.7403L167.293 32.9771ZM167.862 35.2906L165.868 36.2725C166.34 37.2297 167.056 38.0168 168.019 38.5376L169.076 36.5831L170.134 34.6285C170.045 34.5806 169.952 34.5061 169.855 34.3087L167.862 35.2906ZM169.076 36.5831L168.032 38.5447C168.901 39.007 169.895 39.2451 170.919 39.3496L171.144 37.1388L171.37 34.9281C170.705 34.8602 170.32 34.7278 170.121 34.6214L169.076 36.5831ZM171.144 37.1388L170.919 39.3496C171.863 39.446 172.982 39.4903 174.259 39.4903V37.2681V35.0459C173.072 35.0459 172.114 35.0041 171.37 34.9281L171.144 37.1388ZM174.259 37.2681V39.4903H179.468V37.2681V35.0459H174.259V37.2681ZM179.468 37.2681V39.4903C180.882 39.4903 182.085 39.4597 183.065 39.395L182.919 37.1776L182.772 34.9602C181.926 35.0161 180.828 35.0459 179.468 35.0459V37.2681ZM182.919 37.1776L183.065 39.395C184.152 39.3233 185.236 39.1036 186.159 38.5888L185.077 36.6477L183.995 34.7066C183.868 34.7778 183.513 34.9113 182.772 34.9602L182.919 37.1776ZM185.077 36.6477L186.146 38.5962C187.259 37.9856 187.958 36.9971 188.326 35.8819L186.215 35.1872L184.104 34.4925C184.059 34.6288 184.019 34.685 184.009 34.6975C184.004 34.704 184.003 34.7042 184.006 34.7016C184.009 34.6989 184.011 34.698 184.009 34.6992L185.077 36.6477ZM186.215 35.1872L188.328 35.8741C188.658 34.8599 188.773 33.6251 188.773 32.2921H186.551H184.328C184.328 33.4406 184.22 34.1358 184.101 34.5004L186.215 35.1872ZM186.551 32.2921V34.5143H189.032V32.2921V30.0699H186.551V32.2921ZM189.032 32.2921H186.81C186.81 33.7531 186.651 34.7368 186.434 35.3494L188.528 36.0919L190.623 36.8345C191.078 35.5515 191.254 34.0019 191.254 32.2921H189.032ZM188.528 36.0919L186.434 35.3494C186.24 35.8959 185.98 36.1864 185.697 36.3689L186.9 38.2374L188.102 40.106C189.318 39.3235 190.144 38.1836 190.623 36.8345L188.528 36.0919ZM186.9 38.2374L185.702 36.3653C185.327 36.6053 184.693 36.8471 183.673 36.9764L183.953 39.1809L184.232 41.3855C185.66 41.2046 186.99 40.8174 188.097 40.1096L186.9 38.2374ZM183.953 39.1809L183.671 36.9766C182.581 37.1158 181.187 37.1914 179.468 37.1914V39.4136V41.6358C181.299 41.6358 182.895 41.5563 184.234 41.3853L183.953 39.1809ZM179.468 39.4136V37.1914H174.259V39.4136V41.6358H179.468V39.4136ZM174.259 39.4136V37.1914C172.405 37.1914 170.982 37.0621 169.942 36.8398L169.477 39.0129L169.013 41.186C170.471 41.4979 172.236 41.6358 174.259 41.6358V39.4136ZM169.477 39.0129L169.927 36.8368C168.986 36.642 168.44 36.3192 168.115 35.994L166.543 37.5654L164.972 39.1367C166.06 40.2246 167.47 40.8669 169.027 41.1891L169.477 39.0129ZM166.543 37.5654L168.124 36.0037C167.814 35.6901 167.47 35.109 167.243 34.0495L165.07 34.5151L162.897 34.9807C163.239 36.5751 163.876 38.0275 164.962 39.127L166.543 37.5654ZM165.07 34.5151L167.246 34.063C167.013 32.9439 166.878 31.3841 166.878 29.3323H164.656H162.434C162.434 31.537 162.575 33.4324 162.894 34.9672L165.07 34.5151Z" fill="url(#paint0_linear_1195_151)"/>
<path d="M98.1969 55.5902L97.7002 56.5636L97.7082 56.5676L97.7162 56.5716L98.1969 55.5902ZM96.5391 55.2412L96.4545 56.3307L96.465 56.3314L96.5391 55.2412ZM93.4636 55.1212L93.4819 54.0286L93.4793 54.0285L93.4636 55.1212ZM87.3998 55.034L87.3839 56.1266L87.384 56.1266L87.3998 55.034ZM83.7898 54.7613L83.9792 53.6851L83.7898 54.7613ZM81.7286 54.0088L81.0729 54.8831L81.0817 54.8896L81.7286 54.0088ZM80.7906 52.6128L79.7336 52.8903L79.737 52.9026L80.7906 52.6128ZM80.8779 48.0758L79.8473 47.7121L79.8436 47.723L80.8779 48.0758ZM82.0448 46.6253L81.4721 45.6946L81.4668 45.698L82.0448 46.6253ZM84.4442 45.8946L84.5891 46.9778L84.5966 46.9767L84.4442 45.8946ZM99.1784 46.4726L99.732 45.5304L99.1784 46.4726ZM100.422 48.0649L99.3882 48.4199L99.3914 48.4292L100.422 48.0649ZM100.803 51.0314V52.1242H101.896V51.0314H100.803ZM98.7095 51.0314H97.6167V52.1242H98.7095V51.0314ZM98.4259 48.8284L97.3985 49.2006L97.4018 49.2097L97.4052 49.2186L98.4259 48.8284ZM97.5098 47.8032L97.0772 48.8067L97.0834 48.8094L97.5098 47.8032ZM85.4258 47.5632L85.3551 46.4728L85.3544 46.4728L85.4258 47.5632ZM82.8519 48.7847L81.819 48.4279L81.8161 48.4364L81.8133 48.4448L82.8519 48.7847ZM82.7974 51.8494L81.7411 52.1296L82.7974 51.8494ZM83.4299 52.6673L82.8832 53.6135L82.8956 53.6207L82.9081 53.6275L83.4299 52.6673ZM84.9677 53.049L84.8533 54.1359L84.8646 54.137L84.9677 53.049ZM87.7924 53.169L87.8071 52.0763L87.8057 52.0763L87.7924 53.169ZM94.2925 53.2563L94.3081 52.1636L94.3071 52.1636L94.2925 53.2563ZM97.946 53.5289L97.7566 54.6052L97.7664 54.6068L97.946 53.5289ZM99.9964 54.2814L99.3274 55.1456L99.3341 55.1507L99.9964 54.2814ZM100.902 55.6992L99.8399 55.9582L99.8418 55.9658L99.8438 55.9735L100.902 55.6992ZM100.847 60.4107L99.7955 60.1135L99.7933 60.1212L100.847 60.4107ZM82.2412 62.1448L81.6324 63.0523L81.6388 63.0566L81.6452 63.0608L82.2412 62.1448ZM80.5616 57.2261V56.1333H79.4688V57.2261H80.5616ZM82.6556 57.2261H83.7484V56.1333H82.6556V57.2261ZM83.7789 60.8142L83.2191 61.7527L83.2288 61.7585L83.2385 61.764L83.7789 60.8142ZM85.5348 61.2505L85.4607 62.3408L85.4719 62.3414L85.5348 61.2505ZM96.4955 61.1959L96.6105 62.2827L96.6208 62.2815L96.4955 61.1959ZM98.1751 60.7161L98.7641 61.6365L98.7706 61.6324L98.777 61.6281L98.1751 60.7161ZM98.8731 59.6909L97.8119 59.43L97.8099 59.4382L97.808 59.4465L98.8731 59.6909ZM99.0366 57.935H100.129C100.129 57.247 100.077 56.6263 99.9378 56.1189L98.884 56.4081L97.8302 56.6974C97.8944 56.9316 97.9439 57.3288 97.9439 57.935H99.0366ZM98.884 56.4081L99.9378 56.1189C99.7501 55.4351 99.3051 54.9162 98.6776 54.6088L98.1969 55.5902L97.7162 56.5716C97.7732 56.5995 97.7932 56.6214 97.7991 56.6284C97.8044 56.6347 97.8176 56.6516 97.8302 56.6974L98.884 56.4081ZM98.1969 55.5902L98.6935 54.6168C98.1358 54.3322 97.4029 54.2046 96.6132 54.1509L96.5391 55.2412L96.465 56.3314C97.1731 56.3796 97.5454 56.4846 97.7002 56.5636L98.1969 55.5902ZM96.5391 55.2412L96.6238 54.1517C95.8425 54.091 94.792 54.0505 93.4819 54.0286L93.4636 55.1212L93.4453 56.2138C94.7381 56.2355 95.7379 56.275 96.4545 56.3307L96.5391 55.2412ZM93.4636 55.1212L93.4793 54.0285L87.4155 53.9413L87.3998 55.034L87.384 56.1266L93.4479 56.2139L93.4636 55.1212ZM87.3998 55.034L87.4157 53.9413C85.945 53.9199 84.8067 53.8307 83.9792 53.6851L83.7898 54.7613L83.6004 55.8376C84.5907 56.0118 85.859 56.1044 87.3839 56.1266L87.3998 55.034ZM83.7898 54.7613L83.9792 53.6851C83.1475 53.5387 82.6479 53.3282 82.3754 53.128L81.7286 54.0088L81.0817 54.8896C81.7398 55.3729 82.6144 55.664 83.6004 55.8376L83.7898 54.7613ZM81.7286 54.0088L82.3842 53.1346C82.1203 52.9366 81.9426 52.6805 81.8443 52.323L80.7906 52.6128L79.737 52.9026C79.9586 53.7084 80.4062 54.383 81.0729 54.883L81.7286 54.0088ZM80.7906 52.6128L81.8476 52.3353C81.7267 51.8749 81.6544 51.2485 81.6544 50.4316H80.5616H79.4688C79.4688 51.3596 79.5492 52.1874 79.7337 52.8903L80.7906 52.6128ZM80.5616 50.4316H81.6544C81.6544 49.5492 81.7534 48.8939 81.9121 48.4287L80.8779 48.0758L79.8436 47.723C79.5807 48.4938 79.4688 49.409 79.4688 50.4316H80.5616ZM80.8779 48.0758L81.9084 48.4395C82.0434 48.057 82.2719 47.7715 82.6229 47.5527L82.0448 46.6253L81.4668 45.698C80.6981 46.1771 80.1486 46.8587 79.8474 47.7121L80.8779 48.0758ZM82.0448 46.6253L82.6176 47.556C83.0016 47.3197 83.6319 47.1058 84.5891 46.9777L84.4442 45.8946L84.2993 44.8115C83.1916 44.9597 82.2223 45.233 81.4721 45.6946L82.0448 46.6253ZM84.4442 45.8946L84.5966 46.9767C85.5586 46.8412 86.8366 46.7693 88.4468 46.7693V45.6765V44.5837C86.785 44.5837 85.3947 44.6572 84.2918 44.8125L84.4442 45.8946ZM88.4468 45.6765V46.7693H93.1146V45.6765V44.5837H88.4468V45.6765ZM93.1146 45.6765V46.7693C94.5782 46.7693 95.7768 46.816 96.7187 46.9061L96.8227 45.8183L96.9267 44.7304C95.8909 44.6314 94.6174 44.5837 93.1146 44.5837V45.6765ZM96.8227 45.8183L96.7187 46.9061C97.6177 46.992 98.2299 47.1828 98.6249 47.4148L99.1784 46.4726L99.732 45.5304C98.9637 45.079 98.0054 44.8335 96.9267 44.7304L96.8227 45.8183ZM99.1784 46.4726L98.6249 47.4148C98.9526 47.6074 99.2142 47.9131 99.3882 48.4199L100.422 48.0649L101.455 47.71C101.135 46.7771 100.568 46.0213 99.732 45.5304L99.1784 46.4726ZM100.422 48.0649L99.3914 48.4292C99.5864 48.9807 99.7107 49.8281 99.7107 51.0314H100.803H101.896C101.896 49.719 101.766 48.5888 101.452 47.7007L100.422 48.0649ZM100.803 51.0314V49.9386H98.7095V51.0314V52.1242H100.803V51.0314ZM98.7095 51.0314H99.8022C99.8022 50.0165 99.7079 49.1214 99.4466 48.4381L98.4259 48.8284L97.4052 49.2186C97.522 49.5241 97.6167 50.0977 97.6167 51.0314H98.7095ZM98.4259 48.8284L99.4533 48.4561C99.1846 47.7144 98.6866 47.115 97.9361 46.797L97.5098 47.8032L97.0834 48.8094C97.1909 48.8549 97.3037 48.939 97.3985 49.2006L98.4259 48.8284ZM97.5098 47.8032L97.9423 46.7997C97.3384 46.5393 96.6094 46.4321 95.8196 46.4162L95.7975 47.5087L95.7754 48.6013C96.4253 48.6144 96.8378 48.7035 97.0772 48.8067L97.5098 47.8032ZM95.7975 47.5087L95.8196 46.4162C95.0898 46.4014 94.1876 46.3941 93.1146 46.3941V47.4869V48.5797C94.1792 48.5797 95.0656 48.5869 95.7754 48.6013L95.7975 47.5087ZM93.1146 47.4869V46.3941H88.5558V47.4869V48.5797H93.1146V47.4869ZM88.5558 47.4869V46.3941C87.2438 46.3941 86.174 46.4197 85.3551 46.4728L85.4258 47.5632L85.4964 48.6537C86.248 48.605 87.2649 48.5797 88.5558 48.5797V47.4869ZM85.4258 47.5632L85.3544 46.4728C84.5305 46.5267 83.7859 46.6542 83.2068 46.9174L83.659 47.9122L84.1112 48.9071C84.3318 48.8068 84.765 48.7016 85.4971 48.6537L85.4258 47.5632ZM83.659 47.9122L83.2068 46.9174C82.5457 47.2179 82.0592 47.7327 81.819 48.4279L82.8519 48.7847L83.8848 49.1415C83.9209 49.0369 83.9724 48.9701 84.1112 48.9071L83.659 47.9122ZM82.8519 48.7847L81.8133 48.4448C81.6307 49.003 81.5628 49.6836 81.5628 50.4316H82.6556H83.7484C83.7484 49.7835 83.8114 49.3663 83.8905 49.1246L82.8519 48.7847ZM82.6556 50.4316H81.5628C81.5628 51.066 81.6123 51.6442 81.7411 52.1296L82.7974 51.8494L83.8536 51.5691C83.7933 51.342 83.7484 50.975 83.7484 50.4316H82.6556ZM82.7974 51.8494L81.7411 52.1296C81.9123 52.7746 82.3115 53.2832 82.8832 53.6135L83.4299 52.6673L83.9766 51.7211C83.894 51.6734 83.8715 51.6367 83.8536 51.5691L82.7974 51.8494ZM83.4299 52.6673L82.9081 53.6275C83.4334 53.913 84.118 54.0584 84.8533 54.1358L84.9677 53.049L85.0821 51.9623C84.436 51.8943 84.0954 51.7852 83.9517 51.7072L83.4299 52.6673ZM84.9677 53.049L84.8646 54.137C85.5989 54.2065 86.5747 54.247 87.7791 54.2617L87.7924 53.169L87.8057 52.0763C86.6253 52.0619 85.7179 52.0224 85.0708 51.9611L84.9677 53.049ZM87.7924 53.169L87.7777 54.2617L94.2778 54.3489L94.2925 53.2563L94.3071 52.1636L87.8071 52.0763L87.7924 53.169ZM94.2925 53.2563L94.2769 54.3489C95.7779 54.3704 96.9301 54.4597 97.7566 54.6052L97.946 53.5289L98.1355 52.4527C97.1443 52.2782 95.8608 52.1858 94.3081 52.1636L94.2925 53.2563ZM97.946 53.5289L97.7664 54.6068C98.6041 54.7464 99.0825 54.9559 99.3274 55.1455L99.9964 54.2814L100.665 53.4174C100.009 52.909 99.1202 52.6168 98.1257 52.451L97.946 53.5289ZM99.9964 54.2814L99.3341 55.1507C99.5795 55.3376 99.7497 55.588 99.8399 55.9582L100.902 55.6992L101.963 55.4403C101.763 54.6181 101.329 53.9233 100.659 53.4122L99.9964 54.2814ZM100.902 55.6992L99.8438 55.9735C99.965 56.4411 100.038 57.0861 100.038 57.935H101.131H102.223C102.223 56.9808 102.144 56.1353 101.959 55.425L100.902 55.6992ZM101.131 57.935H100.038C100.038 58.8539 99.9485 59.5719 99.7955 60.1135L100.847 60.4107L101.899 60.7079C102.124 59.9116 102.223 58.9793 102.223 57.935H101.131ZM100.847 60.4107L99.7933 60.1212C99.6733 60.5581 99.4519 60.8807 99.1207 61.1302L99.7783 62.003L100.436 62.8758C101.166 62.3256 101.657 61.5865 101.901 60.7002L100.847 60.4107ZM99.7783 62.003L99.1207 61.1302C98.7826 61.3849 98.2052 61.6288 97.2898 61.788L97.4771 62.8646L97.6643 63.9412C98.7557 63.7514 99.7124 63.4209 100.436 62.8758L99.7783 62.003ZM97.4771 62.8646L97.2898 61.788C96.3739 61.9473 95.1241 62.0336 93.5181 62.0336V63.1263V64.2191C95.184 64.2191 96.5735 64.1309 97.6643 63.9412L97.4771 62.8646ZM93.5181 63.1263V62.0336H88.414V63.1263V64.2191H93.5181V63.1263ZM88.414 63.1263V62.0336C86.9511 62.0336 85.7509 61.9691 84.8027 61.8463L84.6623 62.93L84.522 64.0138C85.595 64.1527 86.896 64.2191 88.414 64.2191V63.1263ZM84.6623 62.93L84.8027 61.8463C83.8915 61.7283 83.2584 61.5029 82.8371 61.2288L82.2412 62.1448L81.6452 63.0608C82.4309 63.5719 83.4118 63.87 84.522 64.0138L84.6623 62.93ZM82.2412 62.1448L82.8499 61.2372C82.4845 60.9922 82.1884 60.6139 81.9909 60.0215L80.9542 60.3671L79.9175 60.7126C80.2436 61.6907 80.8054 62.4976 81.6324 63.0523L82.2412 62.1448ZM80.9542 60.3671L81.9909 60.0215C81.7814 59.3931 81.6544 58.4774 81.6544 57.2261H80.5616H79.4688C79.4688 58.5923 79.6035 59.7706 79.9175 60.7126L80.9542 60.3671ZM80.5616 57.2261V58.3189H82.6556V57.2261V56.1333H80.5616V57.2261ZM82.6556 57.2261H81.5628C81.5628 58.2902 81.6473 59.2064 81.8594 59.9164L82.9064 59.6036L83.9535 59.2909C83.8311 58.8812 83.7484 58.2123 83.7484 57.2261H82.6556ZM82.9064 59.6036L81.8594 59.9164C82.0875 60.6803 82.5222 61.337 83.2191 61.7527L83.7789 60.8142L84.3387 59.8757C84.2068 59.797 84.0598 59.6467 83.9535 59.2909L82.9064 59.6036ZM83.7789 60.8142L83.2385 61.764C83.86 62.1176 84.6288 62.2842 85.4607 62.3407L85.5348 61.2505L85.6089 60.1602C84.9431 60.115 84.5413 59.9907 84.3193 59.8644L83.7789 60.8142ZM85.5348 61.2505L85.4719 62.3414C86.2569 62.3867 87.2395 62.4087 88.414 62.4087V61.3159V60.2231C87.2619 60.2231 86.325 60.2015 85.5978 60.1595L85.5348 61.2505ZM88.414 61.3159V62.4087H93.4091V61.3159V60.2231H88.414V61.3159ZM93.4091 61.3159V62.4087C94.7261 62.4087 95.7987 62.3685 96.6105 62.2827L96.4955 61.1959L96.3806 60.1092C95.68 60.1833 94.695 60.2231 93.4091 60.2231V61.3159ZM96.4955 61.1959L96.6208 62.2815C97.4343 62.1877 98.1913 62.0031 98.7641 61.6365L98.1751 60.7161L97.586 59.7957C97.4317 59.8944 97.069 60.0297 96.3703 60.1104L96.4955 61.1959ZM98.1751 60.7161L98.777 61.6281C99.3863 61.226 99.7766 60.6391 99.9381 59.9353L98.8731 59.6909L97.808 59.4465C97.7659 59.6297 97.6909 59.7263 97.5731 59.804L98.1751 60.7161ZM98.8731 59.6909L99.9342 59.9518C100.073 59.388 100.129 58.7048 100.129 57.935H99.0366H97.9439C97.9439 58.6194 97.8914 59.1067 97.8119 59.43L98.8731 59.6909ZM113.78 62.7773L112.799 63.2594L113.099 63.8701H113.78V62.7773ZM105.545 46.0255V44.9327H103.791L104.565 46.5075L105.545 46.0255ZM107.956 46.0255L108.94 45.5509L108.642 44.9327H107.956V46.0255ZM115.176 60.9996L114.191 61.4742L115.205 63.5764L116.17 61.4518L115.176 60.9996ZM121.981 46.0255V44.9327H121.277L120.986 45.5733L121.981 46.0255ZM124.424 46.0255L125.419 45.5733L125.128 44.9327H124.424V46.0255ZM131.229 60.9996L130.235 61.4518L131.251 63.6875L132.231 61.436L131.229 60.9996ZM137.751 46.0255V44.9327H137.035L136.749 45.5891L137.751 46.0255ZM140.162 46.0255L141.158 46.4738L141.851 44.9327H140.162V46.0255ZM132.625 62.7773V63.8701H133.332L133.622 63.2257L132.625 62.7773ZM129.833 62.7773L128.838 63.228L129.129 63.8701H129.833V62.7773ZM123.203 48.1304L124.198 47.6797L123.203 45.4807L122.207 47.6797L123.203 48.1304ZM116.572 62.7773V63.8701H117.276L117.567 63.228L116.572 62.7773ZM113.78 62.7773L114.76 62.2953L106.526 45.5434L105.545 46.0255L104.565 46.5075L112.799 63.2594L113.78 62.7773ZM105.545 46.0255V47.1183H107.956V46.0255V44.9327H105.545V46.0255ZM107.956 46.0255L106.971 46.5001L114.191 61.4742L115.176 60.9996L116.16 60.525L108.94 45.5509L107.956 46.0255ZM115.176 60.9996L116.17 61.4518L122.976 46.4776L121.981 46.0255L120.986 45.5733L114.181 60.5475L115.176 60.9996ZM121.981 46.0255V47.1183H124.424V46.0255V44.9327H121.981V46.0255ZM124.424 46.0255L123.429 46.4776L130.235 61.4518L131.229 60.9996L132.224 60.5475L125.419 45.5733L124.424 46.0255ZM131.229 60.9996L132.231 61.436L138.753 46.4618L137.751 46.0255L136.749 45.5891L130.228 60.5633L131.229 60.9996ZM137.751 46.0255V47.1183H140.162V46.0255V44.9327H137.751V46.0255ZM140.162 46.0255L139.165 45.5771L131.629 62.329L132.625 62.7773L133.622 63.2257L141.158 46.4738L140.162 46.0255ZM132.625 62.7773V61.6846H129.833V62.7773V63.8701H132.625V62.7773ZM129.833 62.7773L130.829 62.3267L124.198 47.6797L123.203 48.1304L122.207 48.5811L128.838 63.228L129.833 62.7773ZM123.203 48.1304L122.207 47.6797L115.576 62.3267L116.572 62.7773L117.567 63.228L124.198 48.5811L123.203 48.1304ZM116.572 62.7773V61.6846H113.78V62.7773V63.8701H116.572V62.7773ZM142.428 62.7773L141.484 62.2267L140.525 63.8701H142.428V62.7773ZM152.2 46.0255V44.9327H151.572L151.256 45.4749L152.2 46.0255ZM154.992 46.0255L155.936 45.4749L155.619 44.9327H154.992V46.0255ZM164.764 62.7773V63.8701H166.666L165.708 62.2267L164.764 62.7773ZM162.321 62.7773L161.361 63.3006L161.672 63.8701H162.321V62.7773ZM160.227 58.9384L161.186 58.4151L160.875 57.8456H160.227V58.9384ZM146.965 58.9384V57.8456H146.316L146.006 58.4151L146.965 58.9384ZM144.871 62.7773V63.8701H145.52L145.83 63.3006L144.871 62.7773ZM148.012 57.1934L147.063 56.6512L146.129 58.2862H148.012V57.1934ZM159.18 57.1934V58.2862H161.063L160.129 56.6512L159.18 57.1934ZM153.596 47.4215L154.545 46.8793L153.596 45.2189L152.647 46.8793L153.596 47.4215ZM142.428 62.7773L143.372 63.328L153.144 46.5761L152.2 46.0255L151.256 45.4749L141.484 62.2267L142.428 62.7773ZM152.2 46.0255V47.1183H154.992V46.0255V44.9327H152.2V46.0255ZM154.992 46.0255L154.048 46.5761L163.82 63.328L164.764 62.7773L165.708 62.2267L155.936 45.4749L154.992 46.0255ZM164.764 62.7773V61.6846H162.321V62.7773V63.8701H164.764V62.7773ZM162.321 62.7773L163.28 62.2541L161.186 58.4151L160.227 58.9384L159.267 59.4617L161.361 63.3006L162.321 62.7773ZM160.227 58.9384V57.8456H146.965V58.9384V60.0312H160.227V58.9384ZM146.965 58.9384L146.006 58.4151L143.912 62.2541L144.871 62.7773L145.83 63.3006L147.924 59.4617L146.965 58.9384ZM144.871 62.7773V61.6846H142.428V62.7773V63.8701H144.871V62.7773ZM148.012 57.1934V58.2862H159.18V57.1934V56.1006H148.012V57.1934ZM159.18 57.1934L160.129 56.6512L154.545 46.8793L153.596 47.4215L152.647 47.9636L158.231 57.7356L159.18 57.1934ZM153.596 47.4215L152.647 46.8793L147.063 56.6512L148.012 57.1934L148.961 57.7356L154.545 47.9636L153.596 47.4215ZM169.833 62.7773H168.74V63.8701H169.833V62.7773ZM169.833 46.0255V44.9327H168.74V46.0255H169.833ZM184.993 46.2654L184.819 47.3444L184.82 47.3446L184.993 46.2654ZM187.272 47.0725L186.626 47.9541L186.634 47.96L187.272 47.0725ZM188.319 48.5884L187.268 48.8871L187.269 48.8902L188.319 48.5884ZM188.308 53.6925L187.261 53.3796L187.259 53.3875L188.308 53.6925ZM184.938 56.0591L185.125 57.1358L185.133 57.1344L184.938 56.0591ZM171.927 56.3209V55.2281H170.834V56.3209H171.927ZM171.927 62.7773V63.8701H173.02V62.7773H171.927ZM183.76 47.945L183.658 49.033L183.669 49.0339L183.76 47.945ZM171.927 47.8359V46.7431H170.834V47.8359H171.927ZM171.927 54.5105H170.834V55.6033H171.927V54.5105ZM183.76 54.3905L183.872 55.4776L183.882 55.4765L183.76 54.3905ZM185.516 53.9324L186.047 54.8877L186.053 54.884L186.06 54.8802L185.516 53.9324ZM186.301 52.9836L187.342 53.318L187.343 53.3127L186.301 52.9836ZM169.833 62.7773H170.926V46.0255H169.833H168.74V62.7773H169.833ZM169.833 46.0255V47.1183H181.044V46.0255V44.9327H169.833V46.0255ZM181.044 46.0255V47.1183C182.653 47.1183 183.904 47.1975 184.819 47.3444L184.993 46.2654L185.166 45.1865C184.088 45.0134 182.708 44.9327 181.044 44.9327V46.0255ZM184.993 46.2654L184.82 47.3446C185.743 47.4916 186.309 47.7215 186.626 47.9541L187.272 47.0725L187.918 46.1908C187.203 45.6672 186.249 45.3591 185.165 45.1863L184.993 46.2654ZM187.272 47.0725L186.634 47.96C186.94 48.1798 187.15 48.4727 187.268 48.8871L188.319 48.5884L189.37 48.2898C189.124 47.4245 188.636 46.7068 187.909 46.1849L187.272 47.0725ZM188.319 48.5884L187.269 48.8902C187.413 49.3922 187.499 50.0715 187.499 50.9551H188.592H189.684C189.684 49.9482 189.588 49.0498 189.369 48.2866L188.319 48.5884ZM188.592 50.9551H187.499V51.3913H188.592H189.684V50.9551H188.592ZM188.592 51.3913H187.499C187.499 52.2228 187.411 52.878 187.261 53.3796L188.308 53.6925L189.355 54.0054C189.583 53.2419 189.684 52.363 189.684 51.3913H188.592ZM188.308 53.6925L187.259 53.3875C187.145 53.778 186.933 54.0802 186.597 54.3242L187.239 55.2085L187.881 56.0928C188.607 55.566 189.107 54.8576 189.357 53.9975L188.308 53.6925ZM187.239 55.2085L186.597 54.3242C186.253 54.5743 185.666 54.8167 184.743 54.9839L184.938 56.0591L185.133 57.1344C186.217 56.938 187.164 56.6133 187.881 56.0928L187.239 55.2085ZM184.938 56.0591L184.751 54.9825C183.835 55.1418 182.585 55.2281 180.979 55.2281V56.3209V57.4137C182.645 57.4137 184.034 57.3255 185.125 57.1358L184.938 56.0591ZM180.979 56.3209V55.2281H171.927V56.3209V57.4137H180.979V56.3209ZM171.927 56.3209H170.834V62.7773H171.927H173.02V56.3209H171.927ZM171.927 62.7773V61.6846H169.833V62.7773V63.8701H171.927V62.7773ZM186.498 50.9551H187.59C187.59 50.2103 187.522 49.5328 187.343 48.9683L186.301 49.2973L185.259 49.6264C185.343 49.8907 185.405 50.3184 185.405 50.9551H186.498ZM186.301 49.2973L187.343 48.9683C187.124 48.2747 186.669 47.7384 186.033 47.3967L185.516 48.3594L184.999 49.3221C185.148 49.4021 185.216 49.4911 185.259 49.6264L186.301 49.2973ZM185.516 48.3594L186.033 47.3967C185.445 47.0807 184.683 46.926 183.852 46.856L183.76 47.945L183.669 49.0339C184.393 49.0948 184.802 49.2164 184.999 49.3221L185.516 48.3594ZM183.76 47.945L183.862 46.8569C183.035 46.7797 181.957 46.7431 180.641 46.7431V47.8359V48.9287C181.928 48.9287 182.929 48.9648 183.658 49.033L183.76 47.945ZM180.641 47.8359V46.7431H171.927V47.8359V48.9287H180.641V47.8359ZM171.927 47.8359H170.834V54.5105H171.927H173.02V47.8359H171.927ZM171.927 54.5105V55.6033H180.641V54.5105V53.4177H171.927V54.5105ZM180.641 54.5105V55.6033C181.959 55.6033 183.041 55.563 183.872 55.4776L183.76 54.3905L183.648 53.3035C182.924 53.3779 181.926 53.4177 180.641 53.4177V54.5105ZM183.76 54.3905L183.882 55.4765C184.713 55.3833 185.467 55.2098 186.047 54.8877L185.516 53.9324L184.985 52.9772C184.78 53.0913 184.364 53.2232 183.638 53.3045L183.76 54.3905ZM185.516 53.9324L186.06 54.8802C186.674 54.5279 187.122 54.0004 187.342 53.318L186.301 52.9836L185.261 52.6492C185.218 52.7811 185.144 52.8862 184.972 52.9847L185.516 53.9324ZM186.301 52.9836L187.343 53.3127C187.52 52.7534 187.59 52.101 187.59 51.3913H186.498H185.405C185.405 51.9758 185.344 52.3849 185.259 52.6545L186.301 52.9836ZM186.498 51.3913H187.59V50.9551H186.498H185.405V51.3913H186.498Z" fill="url(#paint1_linear_1195_151)"/>
<path fill-rule="evenodd" clip-rule="evenodd" d="M65.4901 24.9227C69.0218 31.5242 60.5945 43.2751 45.9968 51.0846C45.1262 51.5503 44.2233 52.0554 43.3391 52.5019C42.8253 52.7613 42.2209 52.753 41.7029 52.5022C41.2842 52.2994 40.9967 51.8984 40.939 51.4367L40.9187 51.2744C40.8658 50.851 41.0454 50.4295 41.4029 50.1965C42.3598 49.5727 43.4199 49.0313 44.4079 48.5027C56.4726 42.0483 65.2339 31.9736 62.2827 26.4571C59.3036 22.4849 45.8974 22.485 34.1795 29.337C32.0068 30.4993 30.2977 31.6547 28.5245 32.9617C28.1501 33.2377 27.6599 33.303 27.228 33.1303C26.744 32.9367 26.4171 32.4789 26.3911 31.9583L26.3801 31.739C26.3516 31.1702 26.6144 30.6262 27.0739 30.2897C28.889 28.9608 30.4582 27.7503 32.6899 26.5564C43.9114 19.8037 61.9584 18.3212 65.4901 24.9227ZM34.974 52.8984C26.831 54.7589 18.45 55.5912 16.3047 51.5812C14.3256 47.8818 18.5887 41.8493 23.8073 36.0896L22.5609 33.8057C14.4278 40.5545 11.0194 48.5011 13.6235 53.3687C16.386 58.5325 29.6115 58.7311 36.7614 54.7589L34.974 52.8984Z" fill="url(#paint2_linear_1195_151)"/>
<path fill-rule="evenodd" clip-rule="evenodd" d="M21.6016 16.4274C28.5051 11.5343 39.4426 18.2051 43.3155 22.0086C43.8564 22.5398 43.4414 23.5347 42.7881 23.9193L42.3225 24.1933L41.8558 24.4691C41.5072 24.6751 41.0807 24.7322 40.7052 24.5808C40.2116 24.3818 40.2438 24.249 39.6412 23.3989C35.967 20.2212 28.4198 15.7524 23.5164 19.2575C19.7803 24.1933 21.965 30.6481 27.7247 42.2668C29.1476 44.579 30.0927 45.8558 31.4871 47.5238C31.8008 47.8991 31.9028 48.409 31.7517 48.8741C31.591 49.369 31.1706 49.7351 30.6583 49.8262L30.5465 49.8461C29.9702 49.9487 29.3837 49.7281 29.0181 49.271C27.6818 47.6005 26.4912 46.0968 25.0435 44.0542C19.5817 35.7126 15.4934 20.7567 21.6016 16.4274Z" fill="url(#paint3_linear_1195_151)"/>
<path fill-rule="evenodd" clip-rule="evenodd" d="M57.814 62.5047C51.0371 67.5718 39.8399 61.5116 33.8816 55.9506C33.7851 55.8605 33.8103 55.8259 33.6583 55.5362C33.391 55.0266 33.2851 54.4403 33.4553 53.8905C33.5929 53.4461 33.9462 53.1016 34.3939 52.9752L34.5513 52.9308C34.962 52.8149 35.4025 52.9319 35.7108 53.227C36.5508 54.0313 37.4795 54.853 38.1516 55.752C43.8828 59.2143 50.8173 63.4706 55.8278 59.7242C59.8993 55.752 56.9202 43.3389 48.5119 32.5028C47.0364 30.5294 45.6374 29.0133 44.0788 27.4565C43.7498 27.1278 43.6115 26.653 43.7174 26.2001C43.8361 25.6925 44.2396 25.3005 44.7504 25.1965L44.9656 25.1528C45.5236 25.0392 46.1009 25.2172 46.5026 25.621C48.0891 27.2158 49.5215 28.5854 51.0371 30.6124C59.5022 39.9626 63.8101 58.0214 57.814 62.5047Z" fill="url(#paint4_linear_1195_151)"/>
<path d="M46.1953 38.8702C46.1953 42.6545 43.1276 45.7222 39.3433 45.7222C35.559 45.7222 32.4913 42.6545 32.4913 38.8702C32.4913 35.086 35.559 32.0182 39.3433 32.0182C43.1276 32.0182 46.1953 35.086 46.1953 38.8702Z" fill="url(#paint5_linear_1195_151)"/>
<defs>
<linearGradient id="paint0_linear_1195_151" x1="81.2238" y1="17.4184" x2="193.394" y2="20.2794" gradientUnits="userSpaceOnUse">
<stop stop-color="#62B6DB"/>
<stop offset="1" stop-color="#8C7AE4"/>
</linearGradient>
<linearGradient id="paint1_linear_1195_151" x1="84.0494" y1="47.4511" x2="189.987" y2="51.6912" gradientUnits="userSpaceOnUse">
<stop stop-color="#62B6DB"/>
<stop offset="1" stop-color="#8C7AE4"/>
</linearGradient>
<linearGradient id="paint2_linear_1195_151" x1="25.1934" y1="59.792" x2="25.4728" y2="19.941" gradientUnits="userSpaceOnUse">
<stop stop-color="#4F8CEE"/>
<stop offset="1" stop-color="#64C4AA"/>
</linearGradient>
<linearGradient id="paint3_linear_1195_151" x1="25.1934" y1="59.792" x2="25.4728" y2="19.941" gradientUnits="userSpaceOnUse">
<stop stop-color="#4F8CEE"/>
<stop offset="1" stop-color="#64C4AA"/>
</linearGradient>
<linearGradient id="paint4_linear_1195_151" x1="25.1934" y1="59.792" x2="25.4728" y2="19.941" gradientUnits="userSpaceOnUse">
<stop stop-color="#4F8CEE"/>
<stop offset="1" stop-color="#64C4AA"/>
</linearGradient>
<linearGradient id="paint5_linear_1195_151" x1="25.1934" y1="59.792" x2="25.4728" y2="19.941" gradientUnits="userSpaceOnUse">
<stop stop-color="#4F8CEE"/>
<stop offset="1" stop-color="#64C4AA"/>
</linearGradient>
</defs>
</svg>
