<?xml version="1.0" encoding="UTF-8"?><svg id="Layer_2" xmlns="http://www.w3.org/2000/svg" xmlns:xlink="http://www.w3.org/1999/xlink" viewBox="0 0 173.35 104.11"><defs><style>.cls-1{fill:url(#linear-gradient);stroke-width:0px;}</style><linearGradient id="linear-gradient" x1="-28.78" y1="-14.57" x2="165.64" y2="97.68" gradientUnits="userSpaceOnUse"><stop offset=".23" stop-color="#ff0075"/><stop offset=".27" stop-color="#ff0569"/><stop offset=".34" stop-color="#ff1349"/><stop offset=".41" stop-color="#ff2228"/><stop offset=".51" stop-color="#ff4a15"/><stop offset=".61" stop-color="#ff6c05"/><stop offset=".66" stop-color="#ff7900"/><stop offset=".7" stop-color="#ff880c"/><stop offset=".82" stop-color="#ffac2b"/><stop offset=".92" stop-color="#ffc23e"/><stop offset=".98" stop-color="#ffcb45"/></linearGradient></defs><g id="Layer_1-2"><path class="cls-1" d="m122.81,26.5l10.15,11.93c1.17,1.34,2.19,2.44,2.62,3.07,3.04,3.02,4.74,7.09,4.74,11.34-.28,5.02-3.56,8.43-6.57,12.09l-7.1,8.34-3.71,4.32c-.13.15-.22.33-.25.53s0,.4.09.58c.08.18.22.33.4.44.18.11.38.15.58.14h37.04c5.65,0,12.78,4.76,12.37,11.97,0,3.27-1.34,6.42-3.69,8.74-2.36,2.32-5.55,3.63-8.87,3.64h-58c-3.82,0-14.08.41-16.95-8.34-.61-1.83-.69-3.79-.24-5.67.84-2.77,2.16-5.37,3.9-7.69,2.92-4.32,6.08-8.65,9.19-12.84,4.02-5.49,8.14-10.8,12.19-16.4.14-.18.22-.41.22-.64s-.08-.46-.22-.64l-14.74-17.29c-.09-.13-.22-.22-.37-.29-.14-.07-.29-.11-.46-.11s-.32.04-.46.11-.27.18-.37.29c-3.95,5.25-21.23,28.51-24.91,33.22s-12.76,4.97-17.79,0l-23.05-22.81c-.14-.14-.33-.25-.54-.28-.2-.04-.41-.02-.61.06-.19.08-.35.21-.47.39s-.18.38-.18.58v43.84c.06,3.11-.88,6.16-2.67,8.73-1.79,2.56-4.36,4.51-7.33,5.56-1.9.65-3.92.85-5.91.57-1.99-.28-3.89-1.02-5.52-2.17-1.64-1.14-2.98-2.66-3.9-4.42-.92-1.76-1.41-3.71-1.41-5.69V12.87c.13-2.84,1.17-5.57,2.97-7.8C4.76,2.84,7.22,1.23,10,.47c2.38-.62,4.89-.62,7.27.02,2.38.64,4.55,1.88,6.28,3.62l35.43,34.96c.11.11.24.19.38.24s.29.07.45.06c.15-.01.29-.06.42-.13s.25-.18.33-.29L85.73,4.59c1.17-1.39,2.63-2.52,4.28-3.3,1.65-.78,3.45-1.19,5.29-1.21h65.48c1.79,0,3.56.39,5.19,1.12,1.63.73,3.09,1.8,4.26,3.13,1.18,1.33,2.06,2.9,2.58,4.58.52,1.7.66,3.47.42,5.22-.46,3.04-2.03,5.81-4.41,7.79-2.38,1.99-5.4,3.06-8.52,3.02h-36.67c-.19,0-.37.06-.52.15-.15.09-.28.24-.37.39-.08.16-.13.34-.12.52,0,.18.07.35.18.51h-.01Z"/></g></svg>