<svg width="307" height="444" viewBox="0 0 307 444" fill="none" xmlns="http://www.w3.org/2000/svg">
<path d="M57.4812 9.45977C57.4812 4.23528 61.7165 0 66.941 0H92.6648C97.8892 0 102.125 4.23528 102.125 9.45977V109.455H57.4812V9.45977Z" fill="#8F8F8F"/>
<path d="M203.422 9.45977C203.422 4.23528 207.657 0 212.882 0H238.604C243.829 0 248.064 4.23528 248.064 9.45977V109.455H203.422V9.45977Z" fill="#8F8F8F"/>
<path d="M0.260742 127.381C0.260742 117.507 8.26503 109.503 18.1388 109.503H288.322C298.195 109.503 306.199 117.507 306.199 127.381V216.436C306.199 300.918 237.712 369.405 153.23 369.405C68.7474 369.405 0.260742 300.918 0.260742 216.436V127.381Z" fill="url(#paint0_linear_1310_86)"/>
<path d="M102.166 356.444H204.294V369.182C204.294 387.696 189.286 402.704 170.773 402.704H135.687C117.174 402.704 102.166 387.696 102.166 369.182V356.444Z" fill="url(#paint1_linear_1310_86)"/>
<path d="M118.703 397.34H187.757V421.251C187.757 433.594 177.751 443.6 165.409 443.6H141.051C128.708 443.6 118.703 433.594 118.703 421.251V397.34Z" fill="url(#paint2_linear_1310_86)"/>
<path fill-rule="evenodd" clip-rule="evenodd" d="M294.087 276.193C270.518 190.158 191.771 126.934 98.255 126.934C62.7186 126.934 29.3147 136.063 0.260742 152.106V216.436C0.260742 283.012 42.7919 339.654 102.166 360.674V369.181C102.166 381.496 108.807 392.261 118.703 398.089V421.251C118.703 433.594 128.708 443.6 141.051 443.6H165.409C177.751 443.6 187.757 433.594 187.757 421.251V398.089C197.653 392.261 204.294 381.496 204.294 369.181V360.674C244.758 346.348 277.4 315.478 294.087 276.193Z" fill="url(#paint3_linear_1310_86)"/>
<path fill-rule="evenodd" clip-rule="evenodd" d="M257.511 328.352C250.019 242.159 177.676 174.534 89.5394 174.534C56.7524 174.534 26.151 183.893 0.260742 200.083V216.436C0.260742 283.013 42.7919 339.654 102.166 360.676V369.182C102.166 381.497 108.807 392.262 118.703 398.089V421.251C118.703 433.595 128.708 443.6 141.051 443.6H165.409C177.751 443.6 187.757 433.595 187.757 421.251V398.089C197.653 392.262 204.294 381.497 204.294 369.182V360.676C224.265 353.604 242.33 342.505 257.511 328.352Z" fill="url(#paint4_linear_1310_86)"/>
<path fill-rule="evenodd" clip-rule="evenodd" d="M204.463 360.644C201.286 290.401 143.331 234.426 72.3021 234.426C47.6154 234.426 24.5078 241.188 4.73047 252.961C17.0278 303.157 54.0999 343.629 102.248 360.676V369.182C102.248 381.497 108.889 392.262 118.785 398.089V421.251C118.785 433.595 128.791 443.6 141.133 443.6H165.491C177.833 443.6 187.839 433.595 187.839 421.251V398.089C197.735 392.262 204.376 381.497 204.376 369.182V360.676C204.406 360.665 204.434 360.655 204.463 360.644Z" fill="url(#paint5_linear_1310_86)"/>
<g filter="url(#filter0_i_1310_86)">
<path d="M77.0831 265.203C76.0839 265.007 75.1631 265.799 75.2363 266.816C77.8249 302.749 111.857 331.191 153.459 331.191C194.965 331.191 228.935 302.881 231.663 267.065C231.74 266.049 230.822 265.253 229.823 265.445C205.642 270.095 179.654 274.593 153.459 274.593C126.801 274.593 101.581 270.007 77.0831 265.203Z" fill="url(#paint6_linear_1310_86)"/>
</g>
<path d="M80.0417 270.853C81.388 282.226 114.523 296.105 153.961 296.105C193.311 296.105 225.832 282.19 227.313 270.853C204.291 272.327 202.395 279.66 153.961 279.66C103.06 279.66 103.417 272.377 80.0417 270.853Z" fill="url(#paint7_linear_1310_86)"/>
<path d="M147.561 196.583C136.052 217.71 118.062 239.061 97.2787 238.503C76.05 238.503 58.8408 219.735 58.8408 196.583C58.8408 173.432 76.05 154.665 97.2787 154.665C118.507 154.665 134.152 173.221 147.561 196.583Z" fill="url(#paint8_linear_1310_86)"/>
<path d="M158.892 196.645C170.401 217.352 188.39 239.05 209.173 238.503C230.403 238.503 247.612 219.336 247.612 196.645C247.612 173.954 230.515 154.665 209.285 154.665C188.056 154.665 172.301 173.746 158.892 196.645Z" fill="url(#paint9_linear_1310_86)"/>
<path d="M112.27 213.739C117.851 213.739 122.375 209.215 122.375 203.634C122.375 198.054 117.851 193.53 112.27 193.53C106.69 193.53 102.166 198.054 102.166 203.634C102.166 209.215 106.69 213.739 112.27 213.739Z" fill="#031514"/>
<path d="M115.8 211.547C117.683 211.547 119.209 210.021 119.209 208.138C119.209 206.256 117.683 204.729 115.8 204.729C113.918 204.729 112.392 206.256 112.392 208.138C112.392 210.021 113.918 211.547 115.8 211.547Z" fill="white"/>
<path d="M194.285 213.739C199.866 213.739 204.389 209.215 204.389 203.634C204.389 198.054 199.866 193.53 194.285 193.53C188.705 193.53 184.181 198.054 184.181 203.634C184.181 209.215 188.705 213.739 194.285 213.739Z" fill="#031514"/>
<path d="M197.815 211.547C199.698 211.547 201.224 210.021 201.224 208.138C201.224 206.256 199.698 204.729 197.815 204.729C195.933 204.729 194.407 206.256 194.407 208.138C194.407 210.021 195.933 211.547 197.815 211.547Z" fill="white"/>
<path d="M147.773 196.995L59.0644 201.575C58.8728 199.899 58.73 199.117 58.7297 197.889C58.5063 173.204 75.8238 154.438 97.6096 154.438C119.396 154.438 136.377 175.996 147.55 196.437C147.456 196.609 147.868 196.823 147.773 196.995Z" fill="#031514"/>
<path d="M158.679 196.995L247.479 201.575C247.67 199.899 247.7 199.117 247.7 197.889C248.485 173.65 230.611 154.438 208.83 154.438C187.05 154.438 170.073 175.996 158.903 196.437C158.996 196.609 158.584 196.823 158.679 196.995Z" fill="#031514"/>
<g filter="url(#filter1_i_1310_86)">
<path d="M208.653 144.127C181.609 144.127 161.923 171.132 153.339 185.544C144.755 171.132 125.07 144.127 98.0261 144.127C70.7298 144.127 48.5298 167.638 48.5298 196.531C48.5298 225.426 70.7298 248.937 98.0261 248.937C125.067 248.937 144.755 221.932 153.339 207.517C161.923 221.932 181.609 248.937 208.653 248.937C235.949 248.937 258.15 225.426 258.15 196.531C258.15 167.638 235.949 144.127 208.653 144.127ZM98.0261 238.455C76.514 238.455 59.0107 219.649 59.0107 196.531C59.0107 173.415 76.514 154.608 98.0261 154.608C123.583 154.608 142.724 187.56 147.464 196.531C142.724 205.504 123.587 238.455 98.0261 238.455ZM208.653 238.455C183.096 238.455 163.954 205.504 159.215 196.531C163.954 187.56 183.096 154.608 208.653 154.608C230.165 154.608 247.668 173.415 247.668 196.531C247.668 219.649 230.165 238.455 208.653 238.455Z" fill="url(#paint10_linear_1310_86)"/>
</g>
<defs>
<filter id="filter0_i_1310_86" x="75.2322" y="265.173" width="156.435" height="66.0176" filterUnits="userSpaceOnUse" color-interpolation-filters="sRGB">
<feFlood flood-opacity="0" result="BackgroundImageFix"/>
<feBlend mode="normal" in="SourceGraphic" in2="BackgroundImageFix" result="shape"/>
<feColorMatrix in="SourceAlpha" type="matrix" values="0 0 0 0 0 0 0 0 0 0 0 0 0 0 0 0 0 0 127 0" result="hardAlpha"/>
<feOffset/>
<feGaussianBlur stdDeviation="2.7591"/>
<feComposite in2="hardAlpha" operator="arithmetic" k2="-1" k3="1"/>
<feColorMatrix type="matrix" values="0 0 0 0 0 0 0 0 0 0 0 0 0 0 0 0 0 0 0.64 0"/>
<feBlend mode="normal" in2="shape" result="effect1_innerShadow_1310_86"/>
</filter>
<filter id="filter1_i_1310_86" x="48.5298" y="144.127" width="209.62" height="104.81" filterUnits="userSpaceOnUse" color-interpolation-filters="sRGB">
<feFlood flood-opacity="0" result="BackgroundImageFix"/>
<feBlend mode="normal" in="SourceGraphic" in2="BackgroundImageFix" result="shape"/>
<feColorMatrix in="SourceAlpha" type="matrix" values="0 0 0 0 0 0 0 0 0 0 0 0 0 0 0 0 0 0 127 0" result="hardAlpha"/>
<feOffset/>
<feGaussianBlur stdDeviation="2.7591"/>
<feComposite in2="hardAlpha" operator="arithmetic" k2="-1" k3="1"/>
<feColorMatrix type="matrix" values="0 0 0 0 0 0 0 0 0 0 0 0 0 0 0 0 0 0 0.64 0"/>
<feBlend mode="normal" in2="shape" result="effect1_innerShadow_1310_86"/>
</filter>
<linearGradient id="paint0_linear_1310_86" x1="204.406" y1="205.821" x2="314.469" y2="95.6475" gradientUnits="userSpaceOnUse">
<stop stop-color="#46FF47"/>
<stop offset="1" stop-color="#9CFF9D"/>
</linearGradient>
<linearGradient id="paint1_linear_1310_86" x1="204.406" y1="205.821" x2="314.468" y2="95.6479" gradientUnits="userSpaceOnUse">
<stop stop-color="#46FF47"/>
<stop offset="1" stop-color="#9CFF9D"/>
</linearGradient>
<linearGradient id="paint2_linear_1310_86" x1="204.406" y1="205.82" x2="314.469" y2="95.6471" gradientUnits="userSpaceOnUse">
<stop stop-color="#46FF47"/>
<stop offset="1" stop-color="#9CFF9D"/>
</linearGradient>
<linearGradient id="paint3_linear_1310_86" x1="177.813" y1="226.939" x2="232.006" y2="154.98" gradientUnits="userSpaceOnUse">
<stop stop-color="#10D9ED"/>
<stop offset="1" stop-color="#10D9ED" stop-opacity="0.3"/>
</linearGradient>
<linearGradient id="paint4_linear_1310_86" x1="165.745" y1="252.527" x2="202.506" y2="181.686" gradientUnits="userSpaceOnUse">
<stop stop-color="#FA51D3"/>
<stop offset="0.958774" stop-color="#FA51D3" stop-opacity="0"/>
</linearGradient>
<linearGradient id="paint5_linear_1310_86" x1="115.016" y1="356.668" x2="169.991" y2="216.101" gradientUnits="userSpaceOnUse">
<stop stop-color="#FFE700"/>
<stop offset="1" stop-color="#FFE700" stop-opacity="0"/>
</linearGradient>
<linearGradient id="paint6_linear_1310_86" x1="153.454" y1="264.818" x2="153.454" y2="331.191" gradientUnits="userSpaceOnUse">
<stop/>
<stop offset="1" stop-opacity="0.65"/>
</linearGradient>
<linearGradient id="paint7_linear_1310_86" x1="174.907" y1="274.428" x2="174.907" y2="292.307" gradientUnits="userSpaceOnUse">
<stop offset="0.75" stop-color="white"/>
<stop offset="1" stop-color="#DEDEDF"/>
</linearGradient>
<linearGradient id="paint8_linear_1310_86" x1="115.991" y1="166.538" x2="115.99" y2="225.899" gradientUnits="userSpaceOnUse">
<stop offset="0.75" stop-color="white"/>
<stop offset="1" stop-color="#DEDEDF"/>
</linearGradient>
<linearGradient id="paint9_linear_1310_86" x1="190.462" y1="166.538" x2="190.462" y2="225.899" gradientUnits="userSpaceOnUse">
<stop offset="0.75" stop-color="white"/>
<stop offset="1" stop-color="#DEDEDF"/>
</linearGradient>
<linearGradient id="paint10_linear_1310_86" x1="153.339" y1="144.127" x2="153.339" y2="248.937" gradientUnits="userSpaceOnUse">
<stop/>
<stop offset="1" stop-opacity="0.65"/>
</linearGradient>
</defs>
</svg>
