<svg width="95" height="82" viewBox="0 0 95 82" fill="none" xmlns="http://www.w3.org/2000/svg">
<path d="M94.2 46.8929C97.9 38.5929 79.5 15.2929 61.9 5.69287C50.8 -1.80713 39.3 -0.807129 36.9 2.49287C31.8 9.69287 53.9 15.8929 68.7 22.9929C65.5 24.3929 62.5 26.8929 60.8 29.9929C55.3 23.9929 43.2 18.7929 29 22.9929C19.4 25.7929 11.5 32.4929 8.4 42.4929C7.7 42.1929 6.8 41.9929 6 41.9929C2.7 41.9929 0 44.6929 0 47.9929C0 51.2929 2.7 53.9929 6 53.9929C6.6 53.9929 8.5 53.5929 8.5 53.5929L39.3 53.7929C27 73.3929 17.2 76.1929 17.2 79.5929C17.2 82.9929 26.5 82.0929 30 80.7929C46.8 74.7929 64.8 55.8929 67.9 50.4929C80.9 52.1929 91.8 52.2929 94.2 46.8929Z" fill="url(#paint0_linear_1309_82)"/>
<path fill-rule="evenodd" clip-rule="evenodd" d="M68.7999 22.9929C69.4999 22.6929 69.4 21.6929 69.2 20.8929C68.8 19.0929 61.2999 11.6929 54.2999 8.39286C44.6999 3.89286 37.7 4.09286 36.7 6.19286C38.6 10.1929 47.7 13.8929 57.1 17.8929C61 19.4929 65.0999 21.1929 68.7999 22.9929Z" fill="url(#paint1_linear_1309_82)"/>
<path fill-rule="evenodd" clip-rule="evenodd" d="M56.6002 63.1932C54.7002 62.4932 52.5001 61.7932 50.0001 61.1932C52.6001 56.4932 53.2001 49.3932 50.7001 44.9932C47.2001 38.7932 42.8001 35.4932 32.5001 35.4932C26.9001 35.4932 11.7001 37.3932 11.4001 50.0932C11.4001 51.3932 11.4001 52.5932 11.5001 53.7932H39.3001C35.6001 59.6932 32.1001 64.0932 29.0001 67.3932C32.7001 68.2932 35.7001 69.0932 38.5001 69.8932C41.1001 70.5932 43.6002 71.1932 46.1002 71.8932C49.9002 69.0932 53.5002 66.0932 56.6002 63.1932Z" fill="url(#paint2_linear_1309_82)"/>
<path d="M8.00017 52.2936C9.10017 61.8936 14.6002 65.6936 25.8002 66.7936C37.0002 67.8936 43.4002 67.1936 51.9002 67.8936C59.0002 68.4936 65.4002 72.1936 67.7002 70.8936C69.8002 69.7936 68.6002 65.6936 65.8002 63.0936C62.1002 59.6936 57.0002 57.3936 48.1002 56.4936C49.9002 51.5936 49.4002 44.6936 46.6002 40.9936C42.6002 35.5936 35.2002 33.1936 25.8002 34.1936C16.0002 35.3936 6.60017 40.2936 8.00017 52.2936Z" fill="url(#paint3_linear_1309_82)"/>
<defs>
<linearGradient id="paint0_linear_1309_82" x1="27.9827" y1="39.1488" x2="93.529" y2="57.7365" gradientUnits="userSpaceOnUse">
<stop stop-color="#8797FF"/>
<stop offset="1" stop-color="#AAA8FF"/>
</linearGradient>
<linearGradient id="paint1_linear_1309_82" x1="80.058" y1="40.6164" x2="32.7635" y2="-6.79404" gradientUnits="userSpaceOnUse">
<stop stop-color="#3B22A0"/>
<stop offset="1" stop-color="#5156D8" stop-opacity="0"/>
</linearGradient>
<linearGradient id="paint2_linear_1309_82" x1="57.9052" y1="64.9067" x2="12.4734" y2="38.7867" gradientUnits="userSpaceOnUse">
<stop stop-color="#3B1E8F"/>
<stop offset="1" stop-color="#6A6FFB" stop-opacity="0"/>
</linearGradient>
<linearGradient id="paint3_linear_1309_82" x1="24.8166" y1="44.5402" x2="55.5251" y2="83.5586" gradientUnits="userSpaceOnUse">
<stop stop-color="#8898FF"/>
<stop offset="0.9839" stop-color="#5F47F1"/>
</linearGradient>
</defs>
</svg>
