<svg width="512" height="512" viewBox="0 0 512 512" fill="none" xmlns="http://www.w3.org/2000/svg">
<path d="M159.652 144.346C159.652 144.346 13.9376 152.237 0.962045 180.293C-12.0135 208.348 110.555 322.616 110.555 326.707C110.555 330.799 83.0834 482.768 105.586 494.457C128.089 506.146 246.449 432.208 256.093 431.916C265.737 431.624 380.589 516.084 404.553 494.457C428.518 472.83 399.878 338.397 399.878 329.922C399.878 321.447 521.744 206.01 511.223 180.877C500.702 155.744 351.072 144.346 351.072 144.346C351.072 144.346 278.888 13.1277 255.216 14.0044C231.544 14.8811 159.652 144.346 159.652 144.346Z" fill="url(#paint0_linear_916_64)"/>
<ellipse cx="357.124" cy="280.528" rx="36.823" ry="32.7315" fill="url(#paint1_linear_916_64)"/>
<ellipse cx="150.417" cy="279.007" rx="36.823" ry="32.7315" transform="rotate(165 150.417 279.007)" fill="url(#paint2_linear_916_64)"/>
<path fill-rule="evenodd" clip-rule="evenodd" d="M174.368 281.305C190.29 281.305 203.197 265.561 203.197 246.139C203.197 226.718 190.29 210.974 174.368 210.974C158.446 210.974 145.538 226.718 145.538 246.139C145.538 265.561 158.446 281.305 174.368 281.305Z" fill="#F76E08"/>
<path fill-rule="evenodd" clip-rule="evenodd" d="M174.368 275.895C187.841 275.895 198.762 262.573 198.762 246.139C198.762 229.706 187.841 216.384 174.368 216.384C160.895 216.384 149.974 229.706 149.974 246.139C149.974 262.573 160.895 275.895 174.368 275.895ZM189.094 236.024C192.597 234.094 188.093 226.088 182.374 223.943C179.586 222.871 175.941 222.943 174.368 224.158C173.564 224.962 173.222 225.859 173.868 227.946C174.797 230.949 178.371 235.095 181.016 236.096C183.232 236.954 187.378 236.882 189.094 236.024Z" fill="url(#paint3_linear_916_64)"/>
<path d="M182.374 223.943C188.093 226.088 192.597 234.094 189.094 236.024C187.378 236.882 183.232 236.954 181.016 236.096C178.371 235.095 174.797 230.949 173.868 227.946C173.222 225.859 173.564 224.962 174.368 224.158C175.941 222.943 179.586 222.871 182.374 223.943Z" fill="white"/>
<path fill-rule="evenodd" clip-rule="evenodd" d="M174.368 275.919C184.691 275.919 193.06 268.71 193.06 260.229C193.06 251.747 184.691 244.872 174.368 244.872C164.045 244.872 155.676 251.747 155.676 260.229C155.676 268.71 164.045 275.919 174.368 275.919Z" fill="#71618B" fill-opacity="0.69"/>
<path d="M291.661 287.205C291.661 299.479 275.097 317.892 252.5 317.892C229.904 317.892 212.755 301.233 212.755 287.206C212.755 269.378 230.781 279.315 253.377 279.315C275.974 279.315 290.785 267.625 291.661 287.205Z" fill="url(#paint4_linear_916_64)"/>
<path d="M284.648 292.455C284.648 303.889 275.097 316.419 252.5 316.419C229.904 316.419 219.769 305.315 219.769 292.456C219.769 282.227 230.781 281.068 253.377 281.068C275.974 281.068 282.602 281.935 284.648 292.455Z" fill="white" fill-opacity="0.21"/>
<path fill-rule="evenodd" clip-rule="evenodd" d="M329.361 282.654C345.986 282.654 359.462 266.215 359.462 245.937C359.462 225.659 345.986 209.22 329.361 209.22C312.737 209.22 299.26 225.659 299.26 245.937C299.26 266.215 312.737 282.654 329.361 282.654Z" fill="#F76E08"/>
<path fill-rule="evenodd" clip-rule="evenodd" d="M329.361 277.005C343.428 277.005 354.831 263.095 354.831 245.937C354.831 228.778 343.428 214.869 329.361 214.869C315.294 214.869 303.891 228.778 303.891 245.937C303.891 263.095 315.294 277.005 329.361 277.005ZM344.737 235.376C348.394 233.36 343.692 225.001 337.721 222.762C334.81 221.642 331.003 221.717 329.361 222.986C328.521 223.825 328.164 224.762 328.839 226.941C329.809 230.076 333.541 234.405 336.302 235.45C338.616 236.346 342.945 236.271 344.737 235.376Z" fill="url(#paint5_linear_916_64)"/>
<path d="M337.721 222.762C343.692 225.001 348.394 233.36 344.737 235.376C342.945 236.271 338.616 236.346 336.302 235.45C333.541 234.405 329.809 230.076 328.839 226.941C328.164 224.762 328.521 223.825 329.361 222.986C331.003 221.717 334.81 221.642 337.721 222.762Z" fill="white"/>
<path fill-rule="evenodd" clip-rule="evenodd" d="M329.361 277.031C340.14 277.031 348.877 269.503 348.877 260.648C348.877 251.792 340.14 244.614 329.361 244.614C318.583 244.614 309.845 251.792 309.845 260.648C309.845 269.503 318.583 277.031 329.361 277.031Z" fill="#71618B" fill-opacity="0.69"/>
<defs>
<linearGradient id="paint0_linear_916_64" x1="153.429" y1="57.2524" x2="380.504" y2="497.959" gradientUnits="userSpaceOnUse">
<stop stop-color="#FED65B"/>
<stop offset="1" stop-color="#FD9223"/>
</linearGradient>
<linearGradient id="paint1_linear_916_64" x1="349.526" y1="268.839" x2="388.687" y2="300.401" gradientUnits="userSpaceOnUse">
<stop stop-color="#FD8834"/>
<stop offset="1" stop-color="#FEA23C"/>
</linearGradient>
<linearGradient id="paint2_linear_916_64" x1="142.819" y1="267.317" x2="181.98" y2="298.88" gradientUnits="userSpaceOnUse">
<stop stop-color="#FD8834"/>
<stop offset="1" stop-color="#FEA23C"/>
</linearGradient>
<linearGradient id="paint3_linear_916_64" x1="174.368" y1="216.384" x2="174.368" y2="275.895" gradientUnits="userSpaceOnUse">
<stop stop-color="#633538"/>
<stop offset="1" stop-color="#7A525B"/>
</linearGradient>
<linearGradient id="paint4_linear_916_64" x1="252.208" y1="275.853" x2="252.208" y2="317.892" gradientUnits="userSpaceOnUse">
<stop stop-color="#F63717"/>
<stop offset="1" stop-color="#FC6D0F"/>
</linearGradient>
<linearGradient id="paint5_linear_916_64" x1="329.361" y1="214.869" x2="329.361" y2="277.005" gradientUnits="userSpaceOnUse">
<stop stop-color="#633538"/>
<stop offset="1" stop-color="#7A525B"/>
</linearGradient>
</defs>
</svg>
