<svg width="221" height="159" viewBox="0 0 221 159" fill="none" xmlns="http://www.w3.org/2000/svg">
<path d="M97.3019 41.1764C97.2794 48.9633 103.7 51.584 110.345 50.1798C118.064 48.5528 124.247 44.5855 128.893 38.2779C131.085 35.3043 131.386 30.8589 126.647 30.1605C122.878 29.6049 119.994 30.581 116.735 32.233C114.7 33.2693 112.56 30.8213 113.431 28.8164C113.697 28.2057 114.317 27.5724 115.294 26.9166C120.618 23.3348 129.643 21.3674 135.103 25.3922C142.844 31.0917 139.826 41.5669 134.922 47.852C130.222 53.8743 124.159 58.2145 116.735 60.8728C110.105 63.2456 101.192 63.4934 95.5373 59.4986C87.6378 53.9193 86.8118 44.8033 90.5362 36.4156C92.7489 31.4396 96.3408 26.7113 101.312 22.2309C111.637 12.9271 125.1 6.48432 139.052 7.03249C156.03 7.70831 165.619 20.241 161.797 36.8812C159.68 46.1124 155.222 53.9994 148.424 60.5424C135.733 72.7597 118.252 81.5679 100.351 82.6116C93.8177 82.9946 87.0896 82.2587 81.1875 79.4878C72.3118 75.3128 68.2869 66.5046 69.5034 56.8479C70.1992 51.3312 72.467 45.9447 76.3066 40.6883C76.356 40.6204 76.4193 40.5644 76.492 40.5241C76.5647 40.4839 76.645 40.4604 76.7271 40.4555C77.0475 40.4355 77.2803 40.5681 77.4254 40.8535C77.5155 41.0287 77.5381 41.2114 77.493 41.4017C75.5782 49.3313 73.3405 58.4699 79.2276 65.3707C92.8712 81.3836 123.218 65.9581 135.103 56.8479C143.738 50.2324 156.165 32.5935 149.925 21.1571C146.314 14.5416 138.744 12.5141 131.566 13.235C122.785 14.1111 114.913 17.5227 107.95 23.4699C102.829 27.8477 97.3169 34.4708 97.3019 41.1764Z" fill="#00C6F8"/>
<path d="M40.7776 49.0839L23.8861 80.6588C23.7577 80.8925 23.5618 81.0168 23.2984 81.0314L9.8932 81.7264C9.86335 81.7283 9.83341 81.7241 9.80524 81.7141C9.77707 81.704 9.75127 81.6882 9.72944 81.6678C9.7076 81.6473 9.6902 81.6226 9.6783 81.5951C9.6664 81.5677 9.66026 81.5381 9.66026 81.5082L9.01002 11.3622C9.00908 11.1606 9.11011 11.054 9.31312 11.0423L27.3548 9.80814C27.6959 9.7818 27.8632 9.93975 27.8567 10.282L27.2309 41.3387C27.2126 42.0225 27.3755 42.0682 27.7195 41.4759L45.9708 9.80875C45.9896 9.77807 46.0168 9.75349 46.0493 9.73798C46.0817 9.72247 46.118 9.71669 46.1537 9.72134C46.1894 9.72599 46.2229 9.74087 46.2503 9.76419C46.2777 9.7875 46.2978 9.81825 46.3081 9.85272L56.1896 41.8299C56.3009 42.1874 56.4047 42.1846 56.5011 41.8214L65.0727 9.46429C65.0998 9.36501 65.1599 9.27763 65.2434 9.216C65.3269 9.15438 65.429 9.12203 65.5337 9.12412L83.2284 9.4866C83.4782 9.49193 83.571 9.61566 83.5068 9.85778L77.213 33.5756C77.1269 33.902 76.96 34.1797 76.7123 34.4088C66.5471 43.8988 60.2279 59.4774 66.6213 72.7188C66.7833 73.0504 66.8178 73.4325 66.7181 73.7933L64.9977 80.3489C64.9395 80.5864 64.7882 80.7028 64.5438 80.6981L50.5542 80.5491C50.222 80.5494 50.0115 80.3885 49.9228 80.0665L41.2766 49.1408C41.2635 49.0891 41.2351 49.0429 41.1949 49.008C41.1548 48.9732 41.1047 48.9514 41.0512 48.9453C40.9977 48.9392 40.9431 48.9491 40.8943 48.9738C40.8456 48.9985 40.8049 49.0368 40.7776 49.0839Z" fill="#00A9DE"/>
<path d="M220.468 0H194.186L186.301 55.1929C185.425 56.9451 185.531 60.4494 181.045 60.4494C176.559 60.4494 178.422 54.3168 178.422 52.5647L186.307 0L160.019 2.62823V11C160.895 13.6282 168.017 19.311 166 36C164.358 49.5857 155.639 56.9451 152.134 63.0776C152.134 63.0776 151.417 65.7397 153.299 69.5002C158.559 80.0132 162.653 84.1035 181.05 84.1035C219.795 84.1035 216.325 25.8988 220.468 0Z" fill="#00A9DE"/>
<path d="M94.5432 95.4979L67 89C69.6185 91.6185 71.9461 95.1099 74.5647 100.347C75.7357 102.689 74.5647 136.91 74.5647 153.3C84.166 155.046 101.041 158.343 101.041 158.343C101.041 158.343 93.9613 150.487 92.2156 146.996L94.5432 95.4979Z" fill="#00A9DE"/>
<path d="M111.179 152.554C106.679 152.305 102.052 151.874 97.2989 151.259C97.0996 151.234 97 151.122 97 150.923V96.3069C97 96.0868 97.11 95.9851 97.33 96.0017C104.977 96.5809 112.96 97.3654 120.002 100.199C132.412 105.193 139.019 117.653 138.353 130.984C137.583 145.349 124.449 153.297 111.179 152.554ZM123.408 127.859C123.508 126.717 123.421 125.569 123.147 124.415C121.864 118.994 118.67 115.417 113.564 113.686C112.941 113.474 112.308 113.342 111.664 113.288C111.44 113.267 111.328 113.371 111.328 113.599V137.691C111.328 137.919 111.442 138.033 111.671 138.033C118.109 137.959 122.823 134.447 123.408 127.859Z" fill="#00A9DE"/>
</svg>
