<svg width="42" height="30" viewBox="0 0 42 30" fill="none" xmlns="http://www.w3.org/2000/svg">
<path fill-rule="evenodd" clip-rule="evenodd" d="M37.4085 0.878169C39.2167 1.3622 40.6378 2.78318 41.1218 4.59138C41.9965 7.86548 42 14.7007 42 14.7007C42 14.7007 42 21.5359 41.1218 24.8101C40.6378 26.6182 39.2167 28.0392 37.4085 28.5231C34.1345 29.4014 20.9999 29.4014 20.9999 29.4014C20.9999 29.4014 7.86548 29.4014 4.59136 28.5231C2.78318 28.0392 1.3622 26.6182 0.878169 24.8101C2.98023e-07 21.5359 0 14.7007 0 14.7007C0 14.7007 2.98023e-07 7.86548 0.878169 4.59138C1.3622 2.78318 2.78318 1.3622 4.59136 0.878169C7.86548 2.98023e-07 20.9999 0 20.9999 0C20.9999 0 34.1345 2.98023e-07 37.4085 0.878169ZM27.7083 14.7012L16.7969 21.0004V8.40186L27.7083 14.7012Z" fill="white"/>
</svg>
