<svg width="151" height="71" viewBox="0 0 151 71" fill="none" xmlns="http://www.w3.org/2000/svg">
<path d="M114.104 0C105.69 0 96.5019 4.27095 86.7959 12.6911C82.1992 16.6797 78.2148 20.9481 75.2245 24.3721C75.2297 24.3773 75.235 24.3825 75.2402 24.3902C75.248 24.3799 75.2533 24.3747 75.2533 24.3747C75.2533 24.3747 79.9702 29.4589 85.1608 34.9005C87.9548 31.6138 91.9916 27.1279 96.6327 23.103C105.261 15.6152 110.896 14.0457 114.104 14.0457C126.206 14.0457 136.051 23.5485 136.051 35.2269C136.051 46.8405 126.201 56.3355 114.088 56.4081C113.536 56.4081 112.827 56.3407 111.953 56.1491C115.482 57.6616 119.276 58.7494 122.889 58.7494C145.071 58.7494 149.406 44.4189 149.702 43.4036C150.359 40.7773 150.707 38.0422 150.707 35.2295C150.704 15.8017 134.285 0 114.104 0Z" fill="url(#paint0_linear_629_785)"/>
<path d="M36.603 70.4526C45.0167 70.4526 54.2047 66.1816 63.9107 57.7615C68.5074 53.7728 72.4918 49.5045 75.4821 46.0805C75.4769 46.0753 75.4717 46.0701 75.4664 46.0623C75.4586 46.0727 75.4533 46.0779 75.4533 46.0779C75.4533 46.0779 70.7364 40.9937 65.5459 35.552C62.7518 38.8388 58.715 43.3247 54.0739 47.3496C45.4457 54.8373 39.8105 56.4069 36.603 56.4069C24.5006 56.4069 14.6559 46.9041 14.6559 35.2257C14.6559 23.612 24.5058 14.117 36.6187 14.0445C37.1707 14.0445 37.8797 14.1118 38.7535 14.3035C35.2243 12.7909 31.4308 11.7031 27.8179 11.7031C5.63526 11.7031 1.30024 26.0337 1.00461 27.049C0.347951 29.6753 0 32.4103 0 35.2231C0.00261618 54.6509 16.4218 70.4526 36.603 70.4526Z" fill="url(#paint1_linear_629_785)"/>
<path d="M122.839 58.3921C111.483 58.1149 99.6783 49.2493 97.2688 47.0452C91.0475 41.3497 76.6899 25.9287 75.5623 24.7192C65.0374 13.0537 50.7766 0 36.6048 0H36.5864H36.5681C19.3406 0.0854707 4.86262 11.6344 1.0116 27.0502C1.30723 26.0349 6.96602 11.4324 27.8065 11.94C39.1634 12.2171 51.0252 21.2019 53.4321 23.406C59.6533 29.1015 74.0162 44.5251 75.1385 45.7346C85.6634 57.3975 99.9242 70.4486 114.096 70.4486H114.114H114.133C131.36 70.3631 145.838 58.8142 149.689 43.3984C149.396 44.4137 143.68 58.8997 122.839 58.3921Z" fill="#29ABE2"/>
<defs>
<linearGradient id="paint0_linear_629_785" x1="95.0511" y1="4.6451" x2="144.296" y2="56.1551" gradientUnits="userSpaceOnUse">
<stop offset="0.21" stop-color="#F15A24"/>
<stop offset="0.6841" stop-color="#FBB03B"/>
</linearGradient>
<linearGradient id="paint1_linear_629_785" x1="55.6556" y1="65.8075" x2="6.41035" y2="14.2975" gradientUnits="userSpaceOnUse">
<stop offset="0.21" stop-color="#ED1E79"/>
<stop offset="0.8929" stop-color="#522785"/>
</linearGradient>
</defs>
</svg>
